<svg width="950" height="662" viewBox="0 0 950 662" fill="none" xmlns="http://www.w3.org/2000/svg">
<g clip-path="url(#clip0)">
<path d="M95.1299 112.52C120.806 112.52 141.62 91.7057 141.62 66.03C141.62 40.3543 120.806 19.54 95.1299 19.54C69.4542 19.54 48.6399 40.3543 48.6399 66.03C48.6399 91.7057 69.4542 112.52 95.1299 112.52Z" fill="#437FC7"/>
<path opacity="0.1" d="M89.45 160.67C108.97 204.76 84.07 255.53 54.76 293.76C44.95 306.58 34.12 320.02 32.76 336.1C31.12 355.77 44.44 373.85 60.24 385.67C89.06 407.21 128.42 413.87 162.72 403C192.36 393.61 217.28 372.4 247.18 363.85C297.18 349.53 350.18 373.27 393 402.85C423.31 423.76 455.77 449.24 492.31 444.76C518.02 441.61 539.84 423.56 554.65 402.31C561.8 392.05 568.02 380.55 578.43 373.63C584.62 369.51 591.89 367.33 599.16 365.77C665.55 351.58 736.01 386.21 801.52 368.4C845.77 356.4 881.05 321.4 902.99 281.13C924.93 240.86 935.17 195.39 943.7 150.34C949.76 118.34 954.79 83.77 940.86 54.34C926.12 23.18 892 4.29002 857.71 0.750017C823.42 -2.78998 789.03 6.98002 757.44 20.76C717.97 38.02 679.28 62.18 636.2 62.26C606.86 62.32 578.88 51.06 550.83 42.47C503.93 28.12 455.16 20.99 406.56 14.41C360.03 8.11001 313.04 2.25002 266.23 5.97002C233.11 8.60002 203.86 21.26 171.72 27.12C150.77 30.94 129.72 28.12 109.16 34.52C83.84 42.44 57.8 60.79 56.4 89.69C55.08 117.2 79.1 137.28 89.45 160.67Z" fill="#437FC7"/>
<path d="M140.66 353.915C140.779 354.03 140.932 354.104 141.096 354.125C141.259 354.147 141.426 354.115 141.57 354.035C141.263 354.04 140.956 354 140.66 353.915V353.915Z" fill="url(#paint0_linear)"/>
<path d="M242.57 188.265C240.77 187.745 238.2 186.895 235.11 185.815C238.322 181.684 240.671 176.95 242.02 171.895L241.76 171.995C241.85 171.685 241.94 171.385 242.02 171.065C236.09 173.475 229.53 169.395 225.35 164.155C221.17 158.915 218.35 152.415 213.77 147.595C211.862 145.677 209.809 143.909 207.63 142.305C206.28 141.305 204.83 140.175 203.18 140.125C200.51 140.045 198.42 142.665 195.85 143.435C194.159 143.815 192.399 143.75 190.74 143.245C184.11 141.725 177.74 138.915 170.97 138.175C167.348 137.727 163.672 138.142 160.24 139.385C156.84 140.675 155.29 143.245 152.54 145.305C149.54 147.515 143.68 147.465 140.19 147.855C135.955 148.338 131.691 148.516 127.43 148.385C124.982 148.172 122.517 148.263 120.09 148.655C115.02 149.765 110.95 153.795 107.15 157.655C106.113 158.528 105.367 159.697 105.01 161.005C104.962 161.373 104.962 161.746 105.01 162.115C104.972 163.123 105.146 164.128 105.52 165.065C106.69 168.536 108.343 171.825 110.43 174.835C111.98 177.055 113.79 179.145 114.67 181.775C115.088 183.068 115.307 184.416 115.32 185.775C115.277 187.217 115.127 188.655 114.87 190.075C114.199 194.001 113.096 197.841 111.58 201.525C110.64 203.416 109.992 205.439 109.66 207.525C109.632 207.951 109.632 208.379 109.66 208.805C109.41 215.405 116.07 220.155 117.36 226.715C117.466 227.259 117.53 227.811 117.55 228.365C117.41 232.455 115.08 236.455 111.64 238.045C111.94 238.165 112.25 238.265 112.56 238.365C112.265 238.551 111.957 238.717 111.64 238.865C112.27 239.105 112.91 239.315 113.56 239.485C109.651 242.89 106.365 246.951 103.85 251.485C92.2805 273.025 13.9205 315.215 13.9205 315.215L15.0805 315.875L14.1405 316.485C7.36049 320.995 -8.54951 334.145 5.83049 350.775C5.83049 350.775 17.0605 333.055 24.9305 325.505C25.2805 325.165 25.6305 324.855 25.9305 324.565C26.1034 324.831 26.2193 325.13 26.2709 325.443C26.3226 325.757 26.3088 326.077 26.2305 326.385L77.7505 297.435C77.7505 297.435 96.0605 284.615 101.17 281.725C104.767 279.484 108.681 277.798 112.78 276.725L112.18 276.975C114.107 276.445 116.093 276.163 118.09 276.135C127.21 276.275 137.09 282.955 140.34 309.405C144.701 344.825 142.68 351.215 141.28 352.085C141.108 352.072 140.937 352.042 140.77 351.995C140.814 352.033 140.861 352.066 140.91 352.095C140.721 352.081 140.533 352.048 140.35 351.995C140.451 352.087 140.574 352.152 140.707 352.184C140.84 352.215 140.979 352.212 141.11 352.175C141.205 352.203 141.305 352.212 141.403 352.2C141.501 352.188 141.596 352.155 141.68 352.105C141.91 352.118 142.141 352.118 142.37 352.105C142.37 352.431 142.347 352.765 142.3 353.105C142.23 353.105 141.89 353.295 142.3 353.315C142.19 355.315 142.2 357.485 142.3 359.755C137.77 360.005 133.24 360.275 129.3 360.515L129.65 358.645L129.81 357.805C133.29 357.525 136.59 356.505 136.98 353.685C137.83 347.485 129.32 344.175 122.08 343.765C114.84 343.355 71.4205 346.245 71.4205 346.245C71.4205 346.245 64.9105 354.675 85.5605 357.245C86.1738 357.565 86.8105 357.898 87.4705 358.245C95.5605 362.855 106.53 371.345 111.79 375.525L112.52 376.105L110.16 378.025C122.93 380.915 135.28 429.715 142.09 452.025C148.9 474.335 163.8 473.525 176.15 470.215C187.72 467.115 189.15 433.515 189.34 429.295V428.865L209.92 454.285L211.48 456.215C212.08 456.528 212.674 456.821 213.26 457.095C228.84 464.505 246.05 450.295 241.16 434.095C236.21 417.765 228.53 393.615 223.41 383.405C219.12 374.855 213.58 360.655 210.22 351.765C210.657 351.59 211.081 351.386 211.49 351.155C211.49 351.155 211.41 350.755 211.28 350.025L211.49 349.915C211.49 349.915 206.49 324.195 206.27 305.915C206.27 305.595 206.27 305.261 206.27 304.915C206.27 304.715 206.27 304.515 206.27 304.325C209.99 303.475 212.35 303.145 212.35 303.145L212.42 302.345L211.99 302.435L214.061 278.745C214.061 278.745 221.661 262.575 215.84 255.845C214.071 253.877 212.89 251.451 212.43 248.845C211.43 242.655 212.43 232.325 225.98 223.745C246.84 210.515 254.98 199.745 254.98 199.745C254.98 199.745 255.34 192.025 242.57 188.265ZM201.14 204.705V193.755C205.01 193.565 208.96 194.015 212.85 193.755C214.76 193.621 216.652 193.303 218.5 192.805L219.44 193.455C213.749 197.832 207.616 201.603 201.14 204.705V204.705ZM141.99 376.345C143.52 377.405 145.06 378.505 146.57 379.615C147.51 385.015 148.34 388.825 148.4 389.095C146.675 384.65 144.528 380.381 141.99 376.345V376.345Z" fill="url(#paint1_linear)"/>
<path d="M175.05 367.345L174.15 372.235L173.46 375.975L172.2 382.815L159.98 391.365C159.98 391.365 158.88 390.425 157.06 388.935C152.06 384.815 141.53 376.455 133.8 371.935C131.814 370.666 129.664 369.674 127.41 368.985L175.05 367.345Z" fill="#FFBDC6"/>
<path opacity="0.1" d="M175.05 367.345L174.15 372.235C171.457 372.385 168.755 372.247 166.09 371.825L137.58 372.235C136.23 372.155 134.97 372.045 133.79 371.925C131.804 370.656 129.654 369.664 127.4 368.975L175.05 367.345Z" fill="black"/>
<path d="M166.091 371.025C166.091 371.025 180.35 373.465 181.16 367.355C181.97 361.245 173.83 358.025 166.92 357.565C160.01 357.105 118.441 360.025 118.441 360.025C118.441 360.025 111.111 369.795 137.581 371.425L166.091 371.025Z" fill="#8BBAE9"/>
<path opacity="0.1" d="M175.05 367.345L174.15 372.235L173.46 375.975L172.2 382.815L159.98 391.365C159.98 391.365 158.88 390.425 157.06 388.935C152.06 384.815 141.53 376.455 133.8 371.935C131.814 370.666 129.664 369.674 127.41 368.985L175.05 367.345Z" fill="black"/>
<path opacity="0.1" d="M175.05 367.345L174.15 372.235C171.457 372.385 168.755 372.247 166.09 371.825L137.58 372.235C136.23 372.155 134.97 372.045 133.79 371.925C131.804 370.656 129.654 369.664 127.4 368.975L175.05 367.345Z" fill="black"/>
<path opacity="0.1" d="M166.091 371.025C166.091 371.025 180.35 373.465 181.16 367.355C181.97 361.245 173.83 358.025 166.92 357.565C160.01 357.105 118.441 360.025 118.441 360.025C118.441 360.025 111.111 369.795 137.581 371.425L166.091 371.025Z" fill="black"/>
<path d="M197.24 170.215H122.71V258.595H197.24V170.215Z" fill="#A66477"/>
<path opacity="0.1" d="M197.24 170.215H122.71V258.595H197.24V170.215Z" fill="black"/>
<path d="M35.3504 321.525C34.1204 321.835 32.5604 323.015 30.8104 324.735C23.2804 332.175 12.5404 349.625 12.5404 349.625C-1.21958 333.245 14.0104 320.295 20.5404 315.845C22.1204 314.765 23.1804 314.185 23.1804 314.185L35.3504 321.525Z" fill="#FFBDC6"/>
<path d="M174.24 198.115C174.24 198.115 177.91 223.775 190.53 229.885C203.15 235.995 174.24 247.395 174.24 247.395L134.73 232.735C134.73 232.735 157.13 225.405 152.65 203.815L174.24 198.115Z" fill="#FFBDC6"/>
<path d="M131.921 352.475L131.021 357.365L130.331 361.105L129.071 367.945L116.851 376.495C116.851 376.495 115.751 375.555 113.931 374.065C108.931 369.945 98.4005 361.585 90.6705 357.065C88.6841 355.796 86.5344 354.804 84.2805 354.115L131.921 352.475Z" fill="#FFBDC6"/>
<path opacity="0.1" d="M131.921 352.475L131.021 357.365C128.327 357.515 125.625 357.377 122.96 356.955L94.4505 357.365C93.1005 357.285 91.8405 357.175 90.6605 357.055C88.6741 355.786 86.5244 354.794 84.2705 354.105L131.921 352.475Z" fill="black"/>
<path d="M122.921 356.145C122.921 356.145 137.181 358.585 137.991 352.475C138.801 346.365 130.661 343.105 123.731 342.705C116.801 342.305 75.2606 345.145 75.2606 345.145C75.2606 345.145 67.9306 354.915 94.4006 356.545L122.921 356.145Z" fill="#8BBAE9"/>
<path opacity="0.1" d="M130.291 361.115L129.031 367.955L116.811 376.505C116.811 376.505 115.711 375.565 113.891 374.075L130.051 360.825L130.291 361.115Z" fill="black"/>
<path d="M210.921 454.355C210.361 454.081 209.794 453.791 209.221 453.485L207.731 451.585L188.051 426.585V427.025C187.921 431.175 186.501 464.275 175.441 467.325C163.631 470.585 149.371 471.395 142.861 449.405C136.351 427.415 124.531 379.355 112.311 376.505L130.431 361.635C130.431 361.635 142.431 375.635 147.331 389.115C147.151 388.255 138.861 349.545 145.701 342.705H205.161C205.161 342.705 214.321 368.845 220.641 381.805C225.541 391.865 232.891 415.645 237.641 431.735C242.341 447.655 225.921 461.655 210.921 454.355Z" fill="#8BBAE9"/>
<path opacity="0.1" d="M209.26 350.025C200.09 355.455 159.77 353.245 146.63 352.365L143.06 352.105C142.67 352.105 143.12 351.885 143.12 351.885L143.49 348.185L153.26 323.345L205.6 293.025C204.54 296.215 204.18 301.105 204.27 306.715C204.53 324.695 209.26 350.025 209.26 350.025Z" fill="black"/>
<path d="M209.26 348.815C200.09 354.245 159.77 352.035 146.63 351.155L143.06 350.895H142.47L143.12 350.725L146.34 349.875L153.26 322.175L205.6 291.835C204.54 295.025 204.18 299.915 204.27 305.525C204.53 323.475 209.26 348.815 209.26 348.815Z" fill="#DDD8DD"/>
<path opacity="0.1" d="M204.271 305.485C193.631 307.935 170.211 315.145 161.211 332.485C155.211 344.065 150.211 349.035 146.641 351.115L143.071 350.855L143.131 350.635L146.351 349.785L153.271 322.085L205.611 291.745C204.531 295.025 204.181 299.875 204.271 305.485Z" fill="black"/>
<path opacity="0.1" d="M23.1305 314.195L35.3505 321.525C34.1205 321.835 32.5605 323.015 30.8105 324.735C29.8105 321.735 23.3905 317.615 20.4905 315.855C22.0705 314.775 23.1305 314.195 23.1305 314.195Z" fill="black"/>
<path opacity="0.1" d="M140.921 351.365C140.784 351.441 140.627 351.471 140.472 351.451C140.318 351.431 140.173 351.363 140.061 351.255C140.34 351.334 140.63 351.371 140.921 351.365V351.365Z" fill="black"/>
<path d="M168.53 228.255C168.53 228.255 157.53 229.475 149.79 221.335C149.79 221.335 117.21 230.705 106.21 251.885C95.2105 273.065 20.2705 314.605 20.2705 314.605C20.2705 314.605 33.2705 321.935 32.0805 325.605L81.3605 297.095C81.3605 297.095 98.8705 284.465 103.76 281.615C108.65 278.765 135.53 261.255 141.23 308.905C146.93 356.555 141.23 350.905 141.23 350.905C141.23 350.905 149.38 353.755 161.23 330.905C173.08 308.055 209.701 302.805 209.701 302.805L211.701 278.805C211.701 278.805 218.971 262.885 213.401 256.245C211.702 254.291 210.574 251.907 210.141 249.355C209.211 243.255 210.141 233.085 223.141 224.635C243.141 211.635 250.841 201.015 250.841 201.015C250.841 201.015 251.25 193.275 239.03 189.615C226.81 185.955 177.121 165.995 177.121 165.995L175.491 172.915L214.591 200.615C214.591 200.615 195.041 216.495 179.591 216.095C179.531 216.025 182.38 227.845 168.53 228.255Z" fill="#CBCAD2"/>
<path opacity="0.1" d="M176.081 209.285C175.118 206.003 174.366 202.663 173.831 199.285L152.241 205.025C153.186 209.145 153.016 213.442 151.75 217.475C156.163 218.652 160.824 218.502 165.152 217.043C169.479 215.585 173.281 212.883 176.081 209.275V209.285Z" fill="black"/>
<path d="M158.15 217.055C170.974 217.055 181.37 206.659 181.37 193.835C181.37 181.011 170.974 170.615 158.15 170.615C145.326 170.615 134.93 181.011 134.93 193.835C134.93 206.659 145.326 217.055 158.15 217.055Z" fill="#FFBDC6"/>
<path opacity="0.1" d="M170.491 141.025C176.931 141.755 183.061 144.525 189.401 146.025C190.985 146.522 192.673 146.587 194.291 146.215C196.751 145.455 198.751 142.875 201.291 142.955C202.861 142.955 204.291 144.075 205.551 145.105C207.638 146.688 209.6 148.43 211.421 150.315C215.791 155.065 218.511 161.465 222.501 166.625C226.491 171.785 232.781 175.805 238.451 173.435C234.601 188.435 221.961 199.905 208.301 200.835C202.851 201.205 197.301 200.075 191.991 201.675C190.675 202.211 189.286 202.548 187.871 202.675C184.871 202.675 182.391 199.885 180.491 197.175C176.051 190.795 172.491 183.555 167.491 177.745C165.841 175.825 163.891 173.995 161.561 173.645C159.231 173.295 157.081 174.405 155.001 175.485C151.571 177.265 148.061 179.105 145.401 182.145C142.741 185.185 141.061 189.735 142.161 193.855C142.751 196.075 144.111 198.075 144.161 200.405C144.161 204.105 140.941 206.815 140.291 210.405C140.147 211.92 140.094 213.443 140.131 214.965C139.841 219.905 136.621 223.965 133.241 227.055C131.931 228.265 130.471 229.555 130.091 231.425C129.831 232.695 130.091 234.045 129.921 235.335C129.431 238.545 126.231 240.165 123.401 240.585C120.095 241.069 116.721 240.669 113.621 239.425C117.621 237.555 120.011 232.225 119.091 227.425C117.831 220.815 111.191 216.075 111.751 209.335C112.064 207.271 112.684 205.265 113.591 203.385C115.04 199.749 116.092 195.967 116.731 192.105C117.385 189.132 117.32 186.047 116.541 183.105C115.691 180.515 113.961 178.455 112.481 176.265C110.476 173.287 108.895 170.047 107.781 166.635C107.377 165.626 107.223 164.536 107.331 163.455C107.653 162.18 108.35 161.031 109.331 160.155C112.971 156.345 116.871 152.375 121.711 151.275C124.023 150.89 126.375 150.799 128.711 151.005C132.788 151.135 136.869 150.961 140.921 150.485C144.261 150.095 149.921 150.145 152.741 147.965C155.371 145.965 156.861 143.415 160.111 142.135C163.428 140.92 166.992 140.539 170.491 141.025V141.025Z" fill="black"/>
<path opacity="0.1" d="M183.4 380.785C183.4 380.785 196.84 407.255 192.77 415.405Z" fill="black"/>
<path opacity="0.1" d="M207.771 451.585L188.091 426.585V427.025C188.091 427.025 186.951 418.945 190.701 421.665C198.911 427.605 212.051 437.345 212.331 439.025C212.611 440.705 209.671 447.445 207.771 451.585Z" fill="black"/>
<g opacity="0.1">
<path opacity="0.1" d="M179.92 216.025C179.92 216.025 181.58 222.905 176.21 226.345C184.48 224.925 184.84 218.495 184.59 215.695C183.047 215.945 181.484 216.055 179.92 216.025V216.025Z" fill="black"/>
<path opacity="0.1" d="M25.1704 312.975C25.1704 312.975 100.11 271.435 111.11 250.255C119 235.055 138.01 225.945 148.11 222.005C140.74 224.475 115.94 233.945 106.62 251.885C95.6204 273.065 20.6804 314.605 20.6804 314.605L25.1704 312.975Z" fill="black"/>
<path opacity="0.1" d="M194.5 212.795C207.25 208.795 219.44 198.925 219.44 198.925L180.34 171.225L181.23 167.425L177.49 165.925L175.86 172.845L214.96 200.545C208.686 205.477 201.811 209.593 194.5 212.795V212.795Z" fill="black"/>
<path opacity="0.1" d="M194.75 306.655C199.747 304.949 204.874 303.655 210.081 302.785L210.151 301.995C204.904 303.147 199.755 304.705 194.75 306.655V306.655Z" fill="black"/>
<path opacity="0.1" d="M147.361 349.325H147.001C146.864 349.401 146.707 349.431 146.552 349.411C146.398 349.391 146.253 349.323 146.141 349.215C146.42 349.293 146.71 349.33 147.001 349.325C148.341 348.545 150.351 342.465 146.141 307.265C141.641 269.685 123.981 272.635 114.311 276.955C124.191 274.235 137.791 276.585 141.661 308.895C145.871 344.095 143.861 350.185 142.521 350.955C144.257 350.89 145.938 350.324 147.361 349.325Z" fill="black"/>
<path opacity="0.1" d="M142.52 350.965C142.23 350.97 141.94 350.933 141.66 350.855C141.773 350.963 141.918 351.031 142.072 351.051C142.227 351.071 142.384 351.041 142.52 350.965V350.965Z" fill="black"/>
</g>
<path d="M170.491 140.235C176.931 140.965 183.061 143.735 189.401 145.235C190.985 145.732 192.673 145.797 194.291 145.425C196.751 144.665 198.751 142.085 201.291 142.165C202.861 142.165 204.291 143.285 205.551 144.315C207.638 145.898 209.6 147.64 211.421 149.525C215.791 154.275 218.511 160.675 222.501 165.835C226.491 170.995 232.781 175.015 238.451 172.645C234.601 187.645 221.961 199.115 208.301 200.045C202.851 200.415 197.301 199.285 191.991 200.885C190.675 201.421 189.286 201.758 187.871 201.885C184.871 201.885 182.391 199.095 180.491 196.385C176.051 190.005 172.491 182.765 167.491 176.955C165.841 175.035 163.891 173.205 161.561 172.855C159.231 172.505 157.081 173.615 155.001 174.695C151.571 176.475 148.061 178.315 145.401 181.355C142.741 184.395 141.061 188.945 142.161 193.065C142.751 195.285 144.111 197.285 144.161 199.615C144.161 203.315 140.941 206.025 140.291 209.615C140.147 211.13 140.094 212.653 140.131 214.175C139.841 219.115 136.621 223.175 133.241 226.265C131.931 227.475 130.471 228.765 130.091 230.635C129.831 231.905 130.091 233.255 129.921 234.545C129.431 237.755 126.231 239.375 123.401 239.795C120.095 240.279 116.721 239.879 113.621 238.635C117.621 236.765 120.011 231.435 119.091 226.635C117.831 220.025 111.191 215.285 111.751 208.545C112.064 206.481 112.684 204.475 113.591 202.595C115.04 198.959 116.092 195.177 116.731 191.315C117.385 188.342 117.32 185.257 116.541 182.315C115.691 179.725 113.961 177.665 112.481 175.475C110.476 172.497 108.895 169.257 107.781 165.845C107.377 164.836 107.223 163.746 107.331 162.665C107.653 161.39 108.35 160.241 109.331 159.365C112.971 155.555 116.871 151.585 121.711 150.485C124.023 150.1 126.375 150.009 128.711 150.215C132.788 150.344 136.869 150.171 140.921 149.695C144.261 149.305 149.921 149.355 152.741 147.175C155.371 145.175 156.861 142.625 160.111 141.345C163.428 140.13 166.992 139.749 170.491 140.235V140.235Z" fill="#A66477"/>
<path d="M896.945 94.0899C896.945 93.9599 896.945 93.8399 896.945 93.7199C896.945 93.5999 896.945 93.4599 896.885 93.3399H896.725C896.725 93.0699 896.725 92.7999 896.725 92.5099C896.325 83.2399 883.505 63.5099 878.365 69.2699C873.865 74.3299 880.655 87.1299 884.115 92.8899L884.425 93.4099L884.255 93.2999C884.255 93.2999 869.945 135.98 868.255 137.64C866.565 139.3 854.785 172.86 839.255 176.64C836.185 177.37 833.635 178.03 831.495 178.64L831.665 178.07C832.665 174.8 833.895 171.71 834.395 168.07C834.895 164.43 834.395 160.02 832.555 158.25C831.655 157.37 830.555 157.25 829.815 155.85C829.335 154.622 829.077 153.318 829.055 152L827.735 135.82L828.655 135.54C834.215 133.76 839.605 129.54 840.235 123.86C840.042 123.933 839.845 123.997 839.645 124.05C839.718 123.72 839.775 123.386 839.815 123.05C835.145 124.89 830.815 120.05 826.315 117.88C818.905 114.25 810.435 117.67 802.785 118.5C794.115 119.45 785.885 115.85 777.025 116.5C772.205 116.87 766.845 120.14 767.105 124.89C767.255 127.5 769.105 129.71 769.865 132.21C771.785 138.26 767.515 144.33 763.775 149.49C761.315 152.88 758.955 157.01 758.535 160.99C749.925 151.99 740.615 141.59 739.535 137.68L714.625 94.9999C714.625 94.9999 714.035 95.6299 713.085 96.5599C712.935 96.0999 712.755 95.5599 712.555 95.0199C709.375 86.1099 700.375 64.5199 688.965 68.4799C677.555 72.4399 693.695 94.5699 700.715 103.39L701.715 104.61C701.126 104.755 700.508 104.727 699.935 104.53L727.715 152.18C727.715 152.18 732.765 161.3 737.395 163.78C737.395 163.78 771.905 207.29 772.325 215.99C772.745 224.69 787.845 247.9 787.845 247.9C787.845 247.9 792.895 285.61 784.055 292.24H784.165H784.235H784.345H784.445H784.645H784.775H784.905H785.075H785.215H785.415H785.515C785.095 292.65 784.665 293.1 784.225 293.59C777.675 300.85 769.305 316.41 780.745 342.87C797.575 381.87 800.105 397.15 800.105 397.15C800.105 397.15 768.105 398.81 761.805 400.05C756.225 401.15 734.535 401.92 729.575 402.05C727.805 399.99 722.575 395.43 715.515 402.05C706.675 410.34 700.365 438.05 700.365 438.05C700.365 438.05 696.995 460.43 708.365 454.62C708.365 454.62 721.835 435.97 725.615 435.14C727.495 434.73 729.485 431.96 731.005 429.29L731.085 429.34C731.175 429.34 731.545 429.14 732.145 428.9C734.945 427.79 742.655 425.12 748.735 426.45C752.065 427.18 766.345 427.35 781.315 427.31C777.935 435.41 771.875 456.31 771.875 456.31C771.875 456.31 769.345 475.8 777.745 475C783.745 474.41 792.945 459.08 797.745 450.33C801.225 447.78 811.195 438.64 818.565 439.33L868.225 420.27C868.225 420.27 880.005 413.64 873.695 391.68C868.695 374.22 854.465 338.48 848.845 324.55L848.675 324.19C847.315 320.82 846.495 318.82 846.495 318.82C844.186 312.461 842.671 305.84 841.985 299.11C841.935 298.58 841.895 298.04 841.855 297.51C842.551 297.218 843.206 296.838 843.805 296.38C843.805 296.38 839.175 249.56 843.805 244.58L843.885 244.49V244.43L843.965 244.33L844.145 244.1L844.365 243.82C844.615 243.49 844.915 243.08 845.255 242.58C847.905 238.7 852.845 229.84 851.425 219.38C851.365 218.927 851.292 218.47 851.205 218.01C850.661 215.173 849.69 212.435 848.325 209.89C848.125 208.83 848.001 207.757 847.955 206.68C847.955 206.07 847.955 205.4 847.955 204.68V204.56C847.955 204.367 847.955 204.173 847.955 203.98V203.84C847.955 203.37 848.035 202.84 848.105 202.4V202.22C848.105 202.04 848.135 201.857 848.195 201.67V201.44C848.195 201.26 848.275 201.08 848.315 200.9V200.71C848.375 200.47 848.435 200.23 848.515 199.99V199.87C848.575 199.67 848.642 199.473 848.715 199.28L848.805 199.05L849.005 198.57L849.105 198.33C849.185 198.15 849.275 197.97 849.365 197.79L849.435 197.64C849.555 197.42 849.682 197.203 849.815 196.99L849.925 196.82L850.255 196.35L850.415 196.14L850.765 195.72L850.925 195.54C851.105 195.35 851.285 195.16 851.485 194.98C856.955 189.98 881.365 153.13 881.365 153.13C881.365 153.13 887.255 144.84 887.255 139.46C887.585 139.34 897.995 104.64 896.945 94.0899ZM831.415 403.84C830.815 398.16 830.215 391.12 829.665 383.84L839.185 398.68C839.185 398.68 838.285 403.2 831.415 403.84Z" fill="url(#paint2_linear)"/>
<path d="M732.155 400.7C732.155 400.7 726.455 391.7 717.895 399.89C709.335 408.08 703.235 435.32 703.235 435.32C703.235 435.32 699.975 457.32 710.975 451.61C710.975 451.61 723.975 433.28 727.675 432.47C731.375 431.66 735.415 421.47 735.415 421.47L732.155 400.7Z" fill="#493545"/>
<path d="M793.246 422.69C793.246 422.69 785.506 419.02 783.066 421.88C780.626 424.74 772.476 453.24 772.476 453.24C772.476 453.24 770.036 471.98 778.176 471.16C786.316 470.34 800.576 441 800.576 441L793.246 422.69Z" fill="#493545"/>
<path opacity="0.05" d="M793.246 422.69C793.246 422.69 785.506 419.02 783.066 421.88C780.626 424.74 772.476 453.24 772.476 453.24C772.476 453.24 770.036 471.98 778.176 471.16C786.316 470.34 800.576 441 800.576 441L793.246 422.69Z" fill="black"/>
<path d="M820.125 367.3L837.635 394.59C837.635 394.59 836.415 400.7 825.825 399.48L789.575 422.29C789.575 422.29 786.425 450.06 796.495 447.54C798.125 447.13 809.495 435.32 817.675 436.14L865.745 417.4C865.745 417.4 877.145 410.88 871.035 389.3C864.925 367.72 844.725 317.68 844.725 317.68L812.795 335.54L820.125 367.3Z" fill="#3E3D77"/>
<path opacity="0.05" d="M820.125 367.3L837.635 394.59C837.635 394.59 836.415 400.7 825.825 399.48L789.575 422.29C789.575 422.29 786.425 450.06 796.495 447.54C798.125 447.13 809.495 435.32 817.675 436.14L865.745 417.4C865.745 417.4 877.145 410.88 871.035 389.3C864.925 367.72 844.725 317.68 844.725 317.68L812.795 335.54L820.125 367.3Z" fill="black"/>
<path d="M831.125 407.62C833.565 423.1 819.725 424.32 819.725 424.32C819.725 424.32 757.405 425.54 750.075 423.91C742.745 422.28 732.965 426.76 732.965 426.76C720.335 419.02 730.525 399.88 730.525 399.88C730.525 399.88 756.595 399.07 762.705 397.88C768.815 396.69 799.765 395 799.765 395C799.765 395 797.325 379.93 781.025 341.65C769.955 315.65 778.025 300.35 784.395 293.22C786.021 291.328 787.902 289.672 789.985 288.3L840.085 290.74C840.031 293.267 840.125 295.794 840.365 298.31C841.222 306.947 843.467 315.389 847.015 323.31C844.165 323.31 825.835 340.42 825.835 340.42C825.835 340.42 828.675 392.15 831.125 407.62Z" fill="#3E3D77"/>
<path opacity="0.1" d="M734.185 401.51C734.185 401.51 760.255 400.7 766.365 399.51C772.475 398.32 803.425 396.66 803.425 396.66C803.425 396.66 800.985 381.59 784.685 343.31C773.615 317.31 781.685 302.01 788.055 294.88C789.681 292.988 791.562 291.332 793.645 289.96L840.065 292.22C840.065 291.74 840.065 291.22 840.065 290.77L789.965 288.33C787.882 289.702 786.001 291.358 784.375 293.25C778.035 300.39 769.935 315.68 781.005 341.68C797.345 379.93 799.765 395 799.765 395C799.765 395 768.765 396.63 762.705 397.85C756.645 399.07 730.525 399.85 730.525 399.85C730.525 399.85 720.345 419 732.965 426.77C732.965 426.77 733.345 426.59 733.965 426.33C725.575 417.7 734.185 401.51 734.185 401.51Z" fill="black"/>
<path d="M808.715 138.81H783.465V202.75H808.715V138.81Z" fill="#493545"/>
<path opacity="0.1" d="M808.715 138.81H783.465V202.75H808.715V138.81Z" fill="black"/>
<path d="M823.156 129.43C824.026 129.67 825.006 129.7 825.596 130.9C825.962 131.859 826.161 132.874 826.186 133.9L827.776 153.66C827.798 154.954 828.048 156.233 828.516 157.44C829.186 158.78 830.296 158.94 831.166 159.8C832.916 161.54 833.426 165.9 832.946 169.45C832.466 173 831.256 176.04 830.306 179.25C828.946 183.85 828.046 189.02 826.136 192.9C824.226 196.78 820.756 198.9 818.516 195.64C816.276 192.38 816.576 185.8 816.156 180.41C815.456 171.41 811.946 163.65 811.706 154.59C811.506 147.26 813.476 140.42 814.706 133.47C815.586 128.7 815.636 122.91 816.916 118.62C817.986 123.72 820.026 128.57 823.156 129.43Z" fill="#493545"/>
<path opacity="0.1" d="M823.156 129.43C824.026 129.67 825.006 129.7 825.596 130.9C825.962 131.859 826.161 132.874 826.186 133.9L827.776 153.66C827.798 154.954 828.048 156.233 828.516 157.44C829.186 158.78 830.296 158.94 831.166 159.8C832.916 161.54 833.426 165.9 832.946 169.45C832.466 173 831.256 176.04 830.306 179.25C828.946 183.85 828.046 189.02 826.136 192.9C824.226 196.78 820.756 198.9 818.516 195.64C816.276 192.38 816.576 185.8 816.156 180.41C815.456 171.41 811.946 163.65 811.706 154.59C811.506 147.26 813.476 140.42 814.706 133.47C815.586 128.7 815.636 122.91 816.916 118.62C817.986 123.72 820.026 128.57 823.156 129.43Z" fill="black"/>
<path d="M716.265 101.34L706.495 109.49C706.495 109.49 705.335 108.13 703.605 105.93C696.815 97.2598 681.205 75.5098 692.235 71.6198C703.265 67.7298 711.985 88.9398 715.065 97.6999C715.845 99.9199 716.265 101.34 716.265 101.34Z" fill="#DEA5B0"/>
<path d="M892.625 98.4899C888.555 104.6 882.855 98.4899 882.855 98.4899C882.855 98.4899 882.125 97.3999 881.095 95.6399C877.745 89.9699 871.175 77.3999 875.525 72.4199C880.525 66.7299 892.915 86.1499 893.295 95.2599C893.413 96.38 893.179 97.509 892.625 98.4899V98.4899Z" fill="#DEA5B0"/>
<path d="M792.425 164.47C792.425 164.47 800.575 190.54 798.125 198.27C795.675 206 815.645 215 815.645 215H838.455C838.455 215 846.605 198.3 844.565 193.41C842.525 188.52 825.015 184.86 825.015 184.86C825.015 184.86 814.835 184.86 815.245 157.57L792.425 164.47Z" fill="#DEA5B0"/>
<path opacity="0.1" d="M716.265 101.34L706.495 109.49C706.495 109.49 705.335 108.13 703.605 105.93C707.155 105.3 712.665 100.12 715.075 97.6999C715.845 99.9199 716.265 101.34 716.265 101.34Z" fill="black"/>
<path opacity="0.1" d="M892.625 98.4899C888.555 104.6 882.855 98.4899 882.855 98.4899C882.855 98.4899 882.125 97.3999 881.095 95.6399L881.225 95.2299C883.865 97.1199 892.075 95.5099 893.295 95.2299C893.419 96.3599 893.185 97.5004 892.625 98.4899V98.4899Z" fill="black"/>
<path opacity="0.1" d="M840.345 298.3C827.745 304.05 786.805 293.81 784.345 293.2C785.971 291.308 787.852 289.652 789.935 288.28L840.035 290.72C839.991 293.25 840.094 295.781 840.345 298.3V298.3Z" fill="black"/>
<path d="M797.725 186.87C797.725 186.87 787.955 190.13 774.105 177.5C774.105 177.5 743.105 146.95 741.105 139.62L717.105 97.6199C717.105 97.6199 706.925 108.62 702.845 106.99L729.725 153.83C729.725 153.83 734.615 162.83 739.095 165.23C739.095 165.23 772.495 208 772.895 216.55C773.295 225.1 787.945 248 787.945 248C787.945 248 792.835 285.06 784.275 291.58C784.275 291.58 831.925 303.8 842.105 295.65C842.105 295.65 837.625 249.65 842.105 244.74C842.105 244.74 855.955 228.45 846.585 210.53C846.585 210.53 844.585 200.76 849.845 195.87C855.105 190.98 878.765 154.73 878.765 154.73C878.765 154.73 884.465 146.58 884.465 141.29C884.465 141.29 895.055 105.45 893.465 96.0799C893.465 96.0799 884.095 98.0799 881.245 96.0799C881.245 96.0799 867.395 138.08 865.765 139.66C864.135 141.24 852.765 174.28 837.665 177.95C822.565 181.62 820.155 183.24 820.155 183.24C820.155 183.24 849.475 201.57 835.225 209.71C820.975 217.85 797.725 186.87 797.725 186.87Z" fill="#356DA2"/>
<path opacity="0.1" d="M816.235 170.74C815.752 166.903 815.554 163.036 815.645 159.17L792.835 166.09C793.436 167.609 793.914 169.174 794.265 170.77C796.875 171.92 800.395 174.64 803.425 174.64C808.009 174.79 812.513 173.418 816.235 170.74V170.74Z" fill="black"/>
<path d="M803.015 173.43C814.713 173.43 824.195 163.947 824.195 152.25C824.195 140.552 814.713 131.07 803.015 131.07C791.318 131.07 781.835 140.552 781.835 152.25C781.835 163.947 791.318 173.43 803.015 173.43Z" fill="#DEA5B0"/>
<path opacity="0.1" d="M777.816 119.62C773.156 119.98 767.956 123.2 768.216 127.87C768.356 130.44 770.116 132.61 770.886 135.07C772.736 141.02 768.616 146.99 764.996 152.07C761.376 157.15 757.996 163.88 761.096 169.26C761.979 170.555 762.934 171.8 763.956 172.99C767.786 178.16 767.736 185.14 769.436 191.35C771.607 199.295 776.738 206.106 783.776 210.384C790.814 214.661 799.223 216.081 807.276 214.35C804.244 210.481 802.733 205.636 803.026 200.73C803.256 197.17 804.406 193.45 803.026 190.16C801.246 185.93 796.026 184.26 793.336 180.56C790.646 176.86 790.826 171.73 792.126 167.32C793.426 162.91 795.676 158.82 796.756 154.32C797.022 153.007 797.356 151.709 797.756 150.43C799.636 145.09 805.256 141.99 810.756 140.66C816.256 139.33 822.036 139.25 827.406 137.5C832.776 135.75 837.996 131.65 838.616 126.02C834.096 127.83 829.906 123.11 825.546 120.94C818.366 117.38 810.176 120.73 802.776 121.55C794.346 122.49 786.346 119 777.816 119.62Z" fill="black"/>
<path d="M777.405 118.81C772.745 119.17 767.545 122.39 767.805 127.06C767.945 129.63 769.705 131.8 770.475 134.26C772.325 140.21 768.205 146.18 764.585 151.26C760.965 156.34 757.585 163.07 760.685 168.45C761.569 169.745 762.524 170.99 763.545 172.18C767.375 177.35 767.325 184.33 769.025 190.54C771.196 198.485 776.328 205.296 783.366 209.574C790.404 213.851 798.813 215.271 806.865 213.54C803.834 209.671 802.323 204.826 802.615 199.92C802.845 196.36 803.995 192.64 802.615 189.35C800.835 185.12 795.615 183.45 792.925 179.75C790.235 176.05 790.415 170.92 791.715 166.51C793.015 162.1 795.265 158.01 796.345 153.51C796.612 152.197 796.946 150.899 797.345 149.62C799.225 144.28 804.845 141.18 810.345 139.85C815.845 138.52 821.625 138.44 826.995 136.69C832.365 134.94 837.585 130.84 838.205 125.21C833.685 127.02 829.495 122.3 825.135 120.13C817.955 116.57 809.765 119.92 802.365 120.74C793.955 121.67 785.985 118.14 777.405 118.81Z" fill="#493545"/>
<path opacity="0.1" d="M823.995 199.3C823.995 199.3 832.475 206.87 834.145 210.21Z" fill="black"/>
<path opacity="0.1" d="M842.346 244.51C842.346 244.51 831.756 244.51 826.866 245.73C821.976 246.95 810.166 245.73 810.166 245.73" fill="black"/>
<g opacity="0.1">
<path opacity="0.1" d="M835.195 209.68C834.282 210.202 833.294 210.58 832.265 210.8C834.922 211.389 837.701 210.991 840.085 209.68C854.345 201.53 825.015 183.21 825.015 183.21H820.125C820.125 183.21 849.455 201.54 835.195 209.68Z" fill="black"/>
<path opacity="0.1" d="M893.535 96.7899C893.535 96.5299 893.475 96.2799 893.435 96.0499C891.76 96.397 890.068 96.654 888.365 96.8199C890.084 97.0089 891.819 96.9988 893.535 96.7899V96.7899Z" fill="black"/>
<path opacity="0.1" d="M789.175 291.55C797.725 285.03 792.845 247.97 792.845 247.97C792.845 247.97 778.185 225.16 777.775 216.61C777.365 208.06 743.975 165.29 743.975 165.29C739.495 162.85 734.605 153.89 734.605 153.89C734.605 153.89 706.905 108.68 702.835 107.05L729.715 153.89C729.715 153.89 734.605 162.89 739.085 165.29C739.085 165.29 772.485 208.06 772.885 216.61C773.285 225.16 787.945 248 787.945 248C787.945 248 792.835 285.06 784.275 291.58C784.275 291.58 813.565 299.09 831.125 298.41C813.525 297.79 789.175 291.55 789.175 291.55Z" fill="black"/>
<path opacity="0.1" d="M797.965 187.19L797.725 186.88C797.447 186.962 797.163 187.026 796.875 187.07C797.255 187.12 797.615 187.16 797.965 187.19Z" fill="black"/>
</g>
<g opacity="0.1">
<path opacity="0.1" d="M893.436 95.9999L893.186 96.0499C892.756 108.56 884.076 137.95 884.076 137.95C884.076 143.24 878.376 151.39 878.376 151.39C878.376 151.39 854.756 187.64 849.456 192.53C844.156 197.42 846.196 207.19 846.196 207.19L846.246 207.29C846.086 204 846.486 198.9 849.856 195.78C855.146 190.89 878.776 154.64 878.776 154.64C878.776 154.64 884.476 146.49 884.476 141.2C884.476 141.26 895.066 105.42 893.436 95.9999Z" fill="black"/>
<path opacity="0.1" d="M841.715 241.45C842.325 244.91 841.915 241.25 842.125 244.71C842.125 244.71 852.125 232.98 849.395 218.48C850.215 231.44 841.715 241.45 841.715 241.45Z" fill="black"/>
</g>
<path opacity="0.1" d="M469.79 661.52C705.986 661.52 897.46 643.128 897.46 620.44C897.46 597.752 705.986 579.36 469.79 579.36C233.595 579.36 42.1201 597.752 42.1201 620.44C42.1201 643.128 233.595 661.52 469.79 661.52Z" fill="#437FC7"/>
<path opacity="0.5" d="M669.9 15.31H663.62C664.215 15.3384 664.809 15.2457 665.367 15.0377C665.925 14.8296 666.435 14.5105 666.866 14.0996C667.297 13.6887 667.64 13.1945 667.874 12.6472C668.109 12.0998 668.229 11.5105 668.229 10.915C668.229 10.3195 668.109 9.73027 667.874 9.18288C667.64 8.63549 667.297 8.14137 666.866 7.73046C666.435 7.31956 665.925 7.00041 665.367 6.79235C664.809 6.58428 664.215 6.49163 663.62 6.52001H612.7C611.57 6.5739 610.505 7.06047 609.725 7.87879C608.945 8.69711 608.509 9.78436 608.509 10.915C608.509 12.0457 608.945 13.1329 609.725 13.9512C610.505 14.7696 611.57 15.2561 612.7 15.31H618.98C617.85 15.3639 616.785 15.8505 616.005 16.6688C615.225 17.4871 614.789 18.5744 614.789 19.705C614.789 20.8357 615.225 21.9229 616.005 22.7412C616.785 23.5595 617.85 24.0461 618.98 24.1H610.19C609.595 24.0716 609.001 24.1643 608.443 24.3723C607.885 24.5804 607.375 24.8996 606.944 25.3105C606.513 25.7214 606.17 26.2155 605.935 26.7629C605.701 27.3103 605.58 27.8995 605.58 28.495C605.58 29.0905 605.701 29.6798 605.935 30.2271C606.17 30.7745 606.513 31.2686 606.944 31.6796C607.375 32.0905 607.885 32.4096 608.443 32.6177C609.001 32.8257 609.595 32.9184 610.19 32.89H661.07C661.665 32.9184 662.259 32.8257 662.817 32.6177C663.375 32.4096 663.885 32.0905 664.316 31.6796C664.747 31.2686 665.09 30.7745 665.324 30.2271C665.559 29.6798 665.68 29.0905 665.68 28.495C665.68 27.8995 665.559 27.3103 665.324 26.7629C665.09 26.2155 664.747 25.7214 664.316 25.3105C663.885 24.8996 663.375 24.5804 662.817 24.3723C662.259 24.1643 661.665 24.0716 661.07 24.1H669.9C671.029 24.0461 672.094 23.5595 672.875 22.7412C673.655 21.9229 674.09 20.8357 674.09 19.705C674.09 18.5744 673.655 17.4871 672.875 16.6688C672.094 15.8505 671.029 15.3639 669.9 15.31Z" fill="#DEE3F3"/>
<path opacity="0.5" d="M375.68 40.95H370.9C371.354 40.9749 371.809 40.9068 372.237 40.7499C372.664 40.5931 373.055 40.3507 373.386 40.0376C373.717 39.7246 373.98 39.3474 374.16 38.9291C374.34 38.5109 374.433 38.0603 374.433 37.605C374.433 37.1497 374.34 36.6991 374.16 36.2809C373.98 35.8626 373.717 35.4854 373.386 35.1724C373.055 34.8593 372.664 34.6169 372.237 34.4601C371.809 34.3032 371.354 34.2351 370.9 34.26H332.18C331.324 34.3068 330.519 34.6796 329.93 35.3018C329.341 35.924 329.013 36.7482 329.013 37.605C329.013 38.4618 329.341 39.286 329.93 39.9082C330.519 40.5304 331.324 40.9032 332.18 40.95H336.96C336.505 40.9251 336.05 40.9932 335.623 41.1501C335.195 41.3069 334.804 41.5493 334.474 41.8624C334.143 42.1754 333.88 42.5526 333.7 42.9709C333.52 43.3891 333.427 43.8397 333.427 44.295C333.427 44.7503 333.52 45.2009 333.7 45.6192C333.88 46.0374 334.143 46.4146 334.474 46.7276C334.804 47.0407 335.195 47.2831 335.623 47.4399C336.05 47.5968 336.505 47.6649 336.96 47.64H330.27C329.815 47.6151 329.36 47.6832 328.933 47.8401C328.505 47.997 328.114 48.2393 327.784 48.5524C327.453 48.8654 327.19 49.2426 327.01 49.6609C326.83 50.0791 326.737 50.5297 326.737 50.985C326.737 51.4403 326.83 51.8909 327.01 52.3092C327.19 52.7274 327.453 53.1046 327.784 53.4176C328.114 53.7307 328.505 53.9731 328.933 54.1299C329.36 54.2868 329.815 54.3549 330.27 54.33H368.99C369.444 54.3549 369.899 54.2868 370.327 54.1299C370.754 53.9731 371.145 53.7307 371.476 53.4176C371.807 53.1046 372.07 52.7274 372.25 52.3092C372.43 51.8909 372.523 51.4403 372.523 50.985C372.523 50.5297 372.43 50.0791 372.25 49.6609C372.07 49.2426 371.807 48.8654 371.476 48.5524C371.145 48.2393 370.754 47.997 370.327 47.8401C369.899 47.6832 369.444 47.6151 368.99 47.64H375.68C376.535 47.5932 377.34 47.2204 377.929 46.5982C378.519 45.976 378.847 45.1518 378.847 44.295C378.847 43.4382 378.519 42.614 377.929 41.9918C377.34 41.3696 376.535 40.9968 375.68 40.95V40.95Z" fill="#DEE3F3"/>
<path d="M50.68 514.76C50.68 514.76 68.18 549.11 53.92 567.9C39.66 586.69 55.22 637.9 55.22 637.9" stroke="#437FC7" stroke-miterlimit="10"/>
<path d="M55.8999 504.02C55.8999 510.64 51.0399 516.02 51.0399 516.02C51.0399 516.02 46.1799 510.65 46.1799 504.02C46.1799 497.39 51.0399 492.02 51.0399 492.02C51.0399 492.02 55.8999 497.4 55.8999 504.02Z" fill="#437FC7"/>
<path d="M59.7501 514.76C59.7501 514.76 42.2501 549.11 56.5101 567.9C70.7701 586.69 55.2101 637.9 55.2101 637.9" stroke="#437FC7" stroke-miterlimit="10"/>
<path d="M54.5701 504.02C54.5701 510.64 59.4301 516.02 59.4301 516.02C59.4301 516.02 64.2901 510.65 64.2901 504.02C64.2901 497.39 59.4301 492.02 59.4301 492.02C59.4301 492.02 54.5701 497.4 54.5701 504.02Z" fill="#437FC7"/>
<path opacity="0.1" d="M54.5701 504.02C54.5701 510.64 59.4301 516.02 59.4301 516.02C59.4301 516.02 64.2901 510.65 64.2901 504.02C64.2901 497.39 59.4301 492.02 59.4301 492.02C59.4301 492.02 54.5701 497.4 54.5701 504.02Z" fill="black"/>
<path d="M66.9 514.76C66.9 514.76 84.4 549.11 70.14 567.9C55.88 586.69 71.44 637.9 71.44 637.9" stroke="#437FC7" stroke-miterlimit="10"/>
<path d="M72.0701 504.02C72.0701 510.64 67.2101 516.02 67.2101 516.02C67.2101 516.02 62.3501 510.65 62.3501 504.02C62.3501 497.39 67.2101 492.02 67.2101 492.02C67.2101 492.02 72.0701 497.4 72.0701 504.02Z" fill="#437FC7"/>
<path d="M69.34 531.54C64.75 536.31 57.52 536.81 57.52 536.81C57.52 536.81 57.74 529.57 62.33 524.81C66.92 520.05 74.15 519.54 74.15 519.54C74.15 519.54 73.9 526.76 69.34 531.54Z" fill="#437FC7"/>
<path d="M69.8 555.24C65.21 560.01 57.98 560.51 57.98 560.51C57.98 560.51 58.2 553.27 62.79 548.51C67.38 543.75 74.61 543.24 74.61 543.24C74.61 543.24 74.39 550.46 69.8 555.24Z" fill="#437FC7"/>
<path d="M44.9 568.27C49.24 573.27 49.09 580.51 49.09 580.51C49.09 580.51 41.9 579.64 37.56 574.64C33.22 569.64 33.37 562.4 33.37 562.4C33.37 562.4 40.56 563.27 44.9 568.27Z" fill="#437FC7"/>
<path d="M48.9 517.76C54.42 521.42 56.21 528.44 56.21 528.44C56.21 528.44 49.05 529.53 43.53 525.87C38.01 522.21 36.22 515.19 36.22 515.19C36.22 515.19 43.41 514.08 48.9 517.76Z" fill="#437FC7"/>
<path opacity="0.1" d="M48.9 517.76C54.42 521.42 56.21 528.44 56.21 528.44C56.21 528.44 49.05 529.53 43.53 525.87C38.01 522.21 36.22 515.19 36.22 515.19C36.22 515.19 43.41 514.08 48.9 517.76Z" fill="black"/>
<path d="M75.9501 514.76C75.9501 514.76 58.45 549.11 72.71 567.9C86.97 586.69 71.41 637.9 71.41 637.9" stroke="#437FC7" stroke-miterlimit="10"/>
<path d="M70.77 504.02C70.77 510.64 75.63 516.02 75.63 516.02C75.63 516.02 80.49 510.65 80.49 504.02C80.49 497.39 75.63 492.02 75.63 492.02C75.63 492.02 70.77 497.4 70.77 504.02Z" fill="#437FC7"/>
<path opacity="0.1" d="M70.77 504.02C70.77 510.64 75.63 516.02 75.63 516.02C75.63 516.02 80.49 510.65 80.49 504.02C80.49 497.39 75.63 492.02 75.63 492.02C75.63 492.02 70.77 497.4 70.77 504.02Z" fill="black"/>
<path d="M72.1699 532.05C67.5199 536.77 67.1699 544.05 67.1699 544.05C67.1699 544.05 74.3999 543.64 79.0499 538.92C83.6999 534.2 84.0499 526.92 84.0499 526.92C84.0499 526.92 76.8199 527.33 72.1699 532.05Z" fill="#437FC7"/>
<path opacity="0.1" d="M72.1699 532.05C67.5199 536.77 67.1699 544.05 67.1699 544.05C67.1699 544.05 74.3999 543.64 79.0499 538.92C83.6999 534.2 84.0499 526.92 84.0499 526.92C84.0499 526.92 76.8199 527.33 72.1699 532.05Z" fill="black"/>
<path d="M81.28 564.86C76.63 569.58 76.28 576.86 76.28 576.86C76.28 576.86 83.51 576.45 88.16 571.73C92.81 567.01 93.16 559.73 93.16 559.73C93.16 559.73 85.9 560.14 81.28 564.86Z" fill="#437FC7"/>
<path d="M67.8999 557.65C67.8999 557.65 78.4299 541.05 93.2199 540.65" stroke="#437FC7" stroke-miterlimit="10"/>
<path d="M59.6701 547.62C59.6701 547.62 49.1401 531.02 34.3501 530.62" stroke="#437FC7" stroke-miterlimit="10"/>
<path d="M58.3 571.32C58.3 571.32 68.8301 554.72 83.6201 554.32" stroke="#437FC7" stroke-miterlimit="10"/>
<path d="M92.71 543.29C94.2177 543.29 95.44 542.068 95.44 540.56C95.44 539.052 94.2177 537.83 92.71 537.83C91.2022 537.83 89.98 539.052 89.98 540.56C89.98 542.068 91.2022 543.29 92.71 543.29Z" fill="#437FC7"/>
<path d="M34.6099 533.49C36.1176 533.49 37.3399 532.268 37.3399 530.76C37.3399 529.252 36.1176 528.03 34.6099 528.03C33.1021 528.03 31.8799 529.252 31.8799 530.76C31.8799 532.268 33.1021 533.49 34.6099 533.49Z" fill="#437FC7"/>
<path d="M66.05 576.76C66.05 576.76 55.52 560.16 40.73 559.76" stroke="#437FC7" stroke-miterlimit="10"/>
<path d="M40.99 562.65C42.4978 562.65 43.72 561.428 43.72 559.92C43.72 558.412 42.4978 557.19 40.99 557.19C39.4823 557.19 38.26 558.412 38.26 559.92C38.26 561.428 39.4823 562.65 40.99 562.65Z" fill="#437FC7"/>
<path d="M83.8201 557.19C85.3278 557.19 86.5501 555.968 86.5501 554.46C86.5501 552.952 85.3278 551.73 83.8201 551.73C82.3124 551.73 81.0901 552.952 81.0901 554.46C81.0901 555.968 82.3124 557.19 83.8201 557.19Z" fill="#437FC7"/>
<path d="M124.28 617.91C124.28 617.91 98.8999 612.83 92.1199 606.06C85.3399 599.29 54.8999 587.45 51.5099 595.91C48.1199 604.37 5.8199 633.14 34.5899 638.22C63.3599 643.3 102.28 644.99 110.74 641.6C119.2 638.21 124.28 617.91 124.28 617.91Z" fill="#A8A8A8"/>
<path opacity="0.2" d="M34.59 635.07C63.36 640.15 102.28 641.84 110.74 638.45C117.18 635.87 121.66 623.45 123.43 617.73L124.28 617.91C124.28 617.91 119.2 638.22 110.74 641.6C102.28 644.98 63.36 643.29 34.59 638.22C26.29 636.75 23.91 633.31 24.81 628.96C25.51 631.76 28.41 633.98 34.59 635.07Z" fill="black"/>
<path d="M894.83 522.54C894.83 522.54 903.21 533.54 890.96 550.04C878.71 566.54 868.61 580.55 872.7 590.87C872.7 590.87 891.18 560.14 906.22 559.71C921.26 559.28 911.38 541.01 894.83 522.54Z" fill="#437FC7"/>
<path opacity="0.1" d="M894.83 522.54C895.56 523.6 896.136 524.758 896.54 525.98C911.22 543.22 919.03 559.31 904.93 559.72C891.79 560.1 876.03 583.59 872.25 589.53C872.375 589.988 872.525 590.439 872.7 590.88C872.7 590.88 891.18 560.15 906.22 559.72C921.26 559.29 911.38 541.01 894.83 522.54Z" fill="black"/>
<path d="M910.41 536.5C910.41 540.36 909.98 543.5 909.41 543.5C908.84 543.5 908.41 540.37 908.41 536.5C908.41 532.63 908.95 534.5 909.48 534.5C910.01 534.5 910.41 532.65 910.41 536.5Z" fill="#FFD037"/>
<path d="M915.76 541.11C912.37 542.96 909.42 544.11 909.17 543.6C908.92 543.09 911.45 541.25 914.84 539.41C918.23 537.57 916.89 538.91 917.15 539.41C917.41 539.91 919.14 539.26 915.76 541.11Z" fill="#FFD037"/>
<path d="M850.57 522.54C850.57 522.54 842.19 533.54 854.44 550.04C866.69 566.54 876.79 580.55 872.7 590.87C872.7 590.87 854.22 560.14 839.18 559.71C824.14 559.28 834.02 541.01 850.57 522.54Z" fill="#437FC7"/>
<path opacity="0.1" d="M850.57 522.54C849.84 523.6 849.264 524.758 848.86 525.98C834.18 543.22 826.37 559.31 840.47 559.72C853.61 560.1 869.37 583.59 873.15 589.53C873.025 589.988 872.875 590.439 872.7 590.88C872.7 590.88 854.22 560.15 839.18 559.72C824.14 559.29 834.02 541.01 850.57 522.54Z" fill="black"/>
<path d="M834.99 536.5C834.99 540.36 835.42 543.5 835.99 543.5C836.56 543.5 836.99 540.37 836.99 536.5C836.99 532.63 836.45 534.5 835.92 534.5C835.39 534.5 834.99 532.65 834.99 536.5Z" fill="#FFD037"/>
<path d="M829.64 541.11C833.03 542.96 835.98 544.11 836.23 543.6C836.48 543.09 833.95 541.25 830.56 539.41C827.17 537.57 828.51 538.91 828.25 539.41C827.99 539.91 826.25 539.26 829.64 541.11Z" fill="#FFD037"/>
<path d="M837.66 589.43C837.66 589.43 861.09 588.71 868.15 583.68C875.21 578.65 904.15 572.68 905.94 580.68C907.73 588.68 941.15 620.79 914.7 621C888.25 621.21 853.24 616.88 846.19 612.59C839.14 608.3 837.66 589.43 837.66 589.43Z" fill="#A8A8A8"/>
<path opacity="0.2" d="M915.17 618.23C888.72 618.44 853.71 614.11 846.66 609.82C841.29 606.55 839.15 594.82 838.44 589.41H837.66C837.66 589.41 839.14 608.31 846.19 612.6C853.24 616.89 888.25 621.23 914.7 621.01C922.34 620.95 924.97 618.23 924.83 614.21C923.77 616.66 920.9 618.18 915.17 618.23Z" fill="black"/>
<path opacity="0.5" d="M177.84 74.64H171.56C172.155 74.6684 172.749 74.5757 173.307 74.3676C173.865 74.1596 174.375 73.8404 174.806 73.4295C175.237 73.0186 175.58 72.5245 175.814 71.9771C176.049 71.4297 176.17 70.8404 176.17 70.245C176.17 69.6495 176.049 69.0602 175.814 68.5128C175.58 67.9654 175.237 67.4713 174.806 67.0604C174.375 66.6495 173.865 66.3304 173.307 66.1223C172.749 65.9142 172.155 65.8216 171.56 65.85H120.68C119.551 65.9039 118.485 66.3904 117.705 67.2088C116.925 68.0271 116.49 69.1143 116.49 70.245C116.49 71.3756 116.925 72.4629 117.705 73.2812C118.485 74.0995 119.551 74.5861 120.68 74.64H126.96C125.831 74.6939 124.765 75.1804 123.985 75.9987C123.205 76.8171 122.77 77.9043 122.77 79.035C122.77 80.1656 123.205 81.2529 123.985 82.0712C124.765 82.8895 125.831 83.3761 126.96 83.43H118.17C117.041 83.4839 115.975 83.9704 115.195 84.7888C114.415 85.6071 113.98 86.6943 113.98 87.825C113.98 88.9556 114.415 90.0429 115.195 90.8612C115.975 91.6795 117.041 92.1661 118.17 92.22H169.05C169.645 92.2484 170.239 92.1557 170.797 91.9476C171.355 91.7396 171.865 91.4204 172.296 91.0095C172.727 90.5986 173.07 90.1045 173.304 89.5571C173.539 89.0097 173.66 88.4204 173.66 87.825C173.66 87.2295 173.539 86.6402 173.304 86.0928C173.07 85.5454 172.727 85.0513 172.296 84.6404C171.865 84.2295 171.355 83.9104 170.797 83.7023C170.239 83.4942 169.645 83.4016 169.05 83.43H177.84C178.969 83.3761 180.035 82.8895 180.815 82.0712C181.595 81.2529 182.03 80.1656 182.03 79.035C182.03 77.9043 181.595 76.8171 180.815 75.9987C180.035 75.1804 178.969 74.6939 177.84 74.64V74.64Z" fill="#DEE3F3"/>
</g>
<defs>
<linearGradient id="paint0_linear" x1="382.894" y1="459.618" x2="382.894" y2="459.57" gradientUnits="userSpaceOnUse">
<stop stop-color="#808080" stop-opacity="0.25"/>
<stop offset="0.54" stop-color="#808080" stop-opacity="0.12"/>
<stop offset="1" stop-color="#808080" stop-opacity="0.1"/>
</linearGradient>
<linearGradient id="paint1_linear" x1="64395.6" y1="202185" x2="64395.6" y2="90641.8" gradientUnits="userSpaceOnUse">
<stop stop-color="#808080" stop-opacity="0.25"/>
<stop offset="0.54" stop-color="#808080" stop-opacity="0.12"/>
<stop offset="1" stop-color="#808080" stop-opacity="0.1"/>
</linearGradient>
<linearGradient id="paint2_linear" x1="181465" y1="245096" x2="181465" y2="79437.7" gradientUnits="userSpaceOnUse">
<stop stop-color="#808080" stop-opacity="0.25"/>
<stop offset="0.54" stop-color="#808080" stop-opacity="0.12"/>
<stop offset="1" stop-color="#808080" stop-opacity="0.1"/>
</linearGradient>
<clipPath id="clip0">
<rect width="949.8" height="661.52" fill="white"/>
</clipPath>
</defs>
</svg>
