<svg width="1029" height="662" viewBox="0 0 1029 662" fill="none" xmlns="http://www.w3.org/2000/svg">
<path d="M129.158 112.52C156.191 112.52 178.105 91.7057 178.105 66.03C178.105 40.3543 156.191 19.54 129.158 19.54C102.125 19.54 80.2107 40.3543 80.2107 66.03C80.2107 91.7057 102.125 112.52 129.158 112.52Z" fill="#437FC7"/>
<path opacity="0.5" d="M216.239 74.64H209.627C210.254 74.6684 210.88 74.5757 211.467 74.3676C212.054 74.1596 212.591 73.8404 213.045 73.4295C213.499 73.0186 213.86 72.5245 214.107 71.9771C214.354 71.4297 214.481 70.8404 214.481 70.245C214.481 69.6495 214.354 69.0602 214.107 68.5128C213.86 67.9654 213.499 67.4713 213.045 67.0604C212.591 66.6495 212.054 66.3304 211.467 66.1223C210.88 65.9142 210.254 65.8216 209.627 65.85H156.058C154.869 65.9039 153.748 66.3904 152.926 67.2088C152.105 68.0271 151.647 69.1143 151.647 70.245C151.647 71.3756 152.105 72.4629 152.926 73.2812C153.748 74.0995 154.869 74.5861 156.058 74.64H162.67C161.481 74.6939 160.36 75.1804 159.538 75.9987C158.717 76.8171 158.258 77.9043 158.258 79.035C158.258 80.1656 158.717 81.2529 159.538 82.0712C160.36 82.8895 161.481 83.3761 162.67 83.43H153.416C152.227 83.4839 151.105 83.9704 150.284 84.7888C149.462 85.6071 149.004 86.6943 149.004 87.825C149.004 88.9556 149.462 90.0429 150.284 90.8612C151.105 91.6795 152.227 92.1661 153.416 92.22H206.985C207.611 92.2484 208.237 92.1557 208.824 91.9476C209.412 91.7396 209.949 91.4204 210.402 91.0095C210.856 90.5986 211.217 90.1045 211.464 89.5571C211.711 89.0097 211.838 88.4205 211.838 87.825C211.838 87.2295 211.711 86.6402 211.464 86.0928C211.217 85.5454 210.856 85.0513 210.402 84.6404C209.949 84.2295 209.412 83.9104 208.824 83.7023C208.237 83.4942 207.611 83.4016 206.985 83.43H216.239C217.428 83.3761 218.55 82.8895 219.371 82.0712C220.193 81.2529 220.651 80.1656 220.651 79.035C220.651 77.9043 220.193 76.8171 219.371 75.9987C218.55 75.1804 217.428 74.6939 216.239 74.64V74.64Z" fill="#DEE3F3"/>
<path d="M142.171 386.915C142.291 387.03 142.445 387.104 142.611 387.125C142.776 387.147 142.945 387.115 143.091 387.035C142.78 387.04 142.47 387 142.171 386.915V386.915Z" fill="url(#paint0_linear)"/>
<path d="M245.175 221.265C243.356 220.745 240.759 219.895 237.635 218.815C240.881 214.684 243.256 209.95 244.62 204.895L244.357 204.995C244.448 204.685 244.539 204.385 244.62 204.065C238.626 206.475 231.995 202.395 227.771 197.155C223.546 191.915 220.695 185.415 216.066 180.595C214.137 178.677 212.062 176.909 209.86 175.305C208.496 174.305 207.03 173.175 205.362 173.125C202.664 173.045 200.551 175.665 197.954 176.435C196.245 176.815 194.465 176.75 192.789 176.245C186.088 174.725 179.649 171.915 172.807 171.175C169.146 170.727 165.43 171.142 161.961 172.385C158.525 173.675 156.958 176.245 154.179 178.305C151.146 180.515 145.223 180.465 141.696 180.855C137.415 181.338 133.105 181.516 128.799 181.385C126.324 181.172 123.832 181.263 121.38 181.655C116.256 182.765 112.142 186.795 108.301 190.655C107.253 191.528 106.498 192.697 106.138 194.005C106.089 194.373 106.089 194.746 106.138 195.115C106.1 196.123 106.275 197.128 106.654 198.065C107.836 201.536 109.507 204.825 111.616 207.835C113.183 210.055 115.012 212.145 115.902 214.775C116.324 216.068 116.545 217.416 116.559 218.775C116.515 220.217 116.363 221.655 116.104 223.075C115.426 227.001 114.311 230.841 112.779 234.525C111.828 236.416 111.173 238.439 110.838 240.525C110.809 240.951 110.809 241.379 110.838 241.805C110.585 248.405 117.317 253.155 118.621 259.715C118.728 260.259 118.792 260.811 118.813 261.365C118.671 265.455 116.316 269.455 112.839 271.045C113.143 271.165 113.456 271.265 113.769 271.365C113.47 271.551 113.16 271.717 112.839 271.865C113.476 272.105 114.123 272.315 114.78 272.485C110.828 275.89 107.507 279.951 104.966 284.485C93.2715 306.025 14.07 348.215 14.07 348.215L15.2424 348.875L14.2923 349.485C7.43953 353.995 -8.64132 367.145 5.89311 383.775C5.89311 383.775 17.2437 366.055 25.1982 358.505C25.552 358.165 25.9057 357.855 26.209 357.565C26.3837 357.831 26.5009 358.13 26.5531 358.443C26.6052 358.757 26.5913 359.077 26.5122 359.385L78.5855 330.435C78.5855 330.435 97.0921 317.615 102.257 314.725C105.892 312.484 109.848 310.798 113.992 309.725L113.385 309.975C115.332 309.445 117.34 309.163 119.359 309.135C128.577 309.275 138.563 315.955 141.848 342.405C146.254 377.825 144.213 384.215 142.798 385.085C142.623 385.072 142.451 385.042 142.282 384.995C142.326 385.033 142.373 385.066 142.424 385.095C142.232 385.081 142.042 385.048 141.858 384.995C141.96 385.087 142.084 385.152 142.218 385.184C142.353 385.215 142.493 385.212 142.626 385.175C142.722 385.203 142.822 385.212 142.921 385.2C143.021 385.188 143.116 385.155 143.202 385.105C143.434 385.118 143.667 385.118 143.899 385.105C143.899 385.431 143.876 385.765 143.829 386.105C143.758 386.105 143.414 386.295 143.829 386.315C143.717 388.315 143.728 390.485 143.829 392.755C139.25 393.005 134.671 393.275 130.689 393.515L131.043 391.645L131.205 390.805C134.722 390.525 138.057 389.505 138.452 386.685C139.311 380.485 130.709 377.175 123.392 376.765C116.074 376.355 72.1875 379.245 72.1875 379.245C72.1875 379.245 65.6076 387.675 86.4793 390.245C87.0992 390.565 87.7428 390.898 88.4098 391.245C96.5867 395.855 107.675 404.345 112.991 408.525L113.729 409.105L111.344 411.025C124.251 413.915 136.733 462.715 143.616 485.025C150.5 507.335 165.56 506.525 178.042 503.215C189.736 500.115 191.182 466.515 191.374 462.295V461.865L212.175 487.285L213.752 489.215C214.358 489.528 214.958 489.821 215.551 490.095C231.298 497.505 248.693 483.295 243.75 467.095C238.747 450.765 230.985 426.615 225.81 416.405C221.474 407.855 215.874 393.655 212.478 384.765C212.919 384.59 213.348 384.386 213.762 384.155C213.762 384.155 213.681 383.755 213.549 383.025L213.762 382.915C213.762 382.915 208.708 357.195 208.486 338.915C208.486 338.595 208.486 338.261 208.486 337.915C208.486 337.715 208.486 337.515 208.486 337.325C212.246 336.475 214.631 336.145 214.631 336.145L214.702 335.345L214.267 335.435L216.359 311.745C216.359 311.745 224.041 295.575 218.158 288.845C216.37 286.877 215.176 284.451 214.712 281.845C213.701 275.655 214.712 265.325 228.407 256.745C249.491 243.515 257.719 232.745 257.719 232.745C257.719 232.745 258.083 225.025 245.175 221.265ZM203.301 237.705V226.755C207.212 226.565 211.205 227.015 215.136 226.755C217.066 226.621 218.979 226.303 220.847 225.805L221.797 226.455C216.045 230.832 209.846 234.603 203.301 237.705V237.705ZM143.515 409.345C145.062 410.405 146.618 411.505 148.145 412.615C149.095 418.015 149.934 421.825 149.994 422.095C148.25 417.65 146.08 413.381 143.515 409.345V409.345Z" fill="url(#paint1_linear)"/>
<path d="M176.93 400.345L176.021 405.235L175.323 408.975L174.05 415.815L161.698 424.365C161.698 424.365 160.587 423.425 158.747 421.935C153.693 417.815 143.05 409.455 135.237 404.935C133.229 403.666 131.057 402.674 128.779 401.985L176.93 400.345Z" fill="#FFBDC6"/>
<path opacity="0.1" d="M176.93 400.345L176.021 405.235C173.298 405.385 170.567 405.247 167.874 404.825L139.058 405.235C137.693 405.155 136.42 405.045 135.227 404.925C133.219 403.656 131.047 402.664 128.769 401.975L176.93 400.345Z" fill="black"/>
<path d="M167.874 404.025C167.874 404.025 182.287 406.465 183.106 400.355C183.925 394.245 175.697 391.025 168.713 390.565C161.729 390.105 119.712 393.025 119.712 393.025C119.712 393.025 112.304 402.795 139.058 404.425L167.874 404.025Z" fill="#8BBAE9"/>
<path opacity="0.1" d="M176.93 400.345L176.021 405.235L175.323 408.975L174.05 415.815L161.698 424.365C161.698 424.365 160.587 423.425 158.747 421.935C153.693 417.815 143.05 409.455 135.237 404.935C133.229 403.666 131.057 402.674 128.779 401.985L176.93 400.345Z" fill="black"/>
<path opacity="0.1" d="M176.93 400.345L176.021 405.235C173.298 405.385 170.567 405.247 167.874 404.825L139.058 405.235C137.693 405.155 136.42 405.045 135.227 404.925C133.219 403.656 131.047 402.664 128.769 401.975L176.93 400.345Z" fill="black"/>
<path opacity="0.1" d="M167.874 404.025C167.874 404.025 182.287 406.465 183.106 400.355C183.925 394.245 175.697 391.025 168.713 390.565C161.729 390.105 119.712 393.025 119.712 393.025C119.712 393.025 112.304 402.795 139.058 404.425L167.874 404.025Z" fill="black"/>
<path d="M199.359 203.215H124.028V291.595H199.359V203.215Z" fill="#A66477"/>
<path opacity="0.1" d="M199.359 203.215H124.028V291.595H199.359V203.215Z" fill="black"/>
<path d="M35.73 354.525C34.4868 354.835 32.91 356.015 31.1412 357.735C23.5304 365.175 12.675 382.625 12.675 382.625C-1.23275 366.245 14.1608 353.295 20.7609 348.845C22.3579 347.765 23.4293 347.185 23.4293 347.185L35.73 354.525Z" fill="#FFBDC6"/>
<path d="M176.112 231.115C176.112 231.115 179.821 256.775 192.576 262.885C205.332 268.995 176.112 280.395 176.112 280.395L136.177 265.735C136.177 265.735 158.818 258.405 154.29 236.815L176.112 231.115Z" fill="#FFBDC6"/>
<path d="M133.337 385.475L132.428 390.365L131.73 394.105L130.457 400.945L118.105 409.495C118.105 409.495 116.994 408.555 115.154 407.065C110.1 402.945 99.4572 394.585 91.6442 390.065C89.6364 388.796 87.4636 387.804 85.1855 387.115L133.337 385.475Z" fill="#FFBDC6"/>
<path opacity="0.1" d="M133.337 385.475L132.428 390.365C129.705 390.515 126.974 390.377 124.281 389.955L95.4649 390.365C94.1004 390.285 92.8268 390.175 91.6342 390.055C89.6264 388.786 87.4536 387.794 85.1755 387.105L133.337 385.475Z" fill="black"/>
<path d="M124.241 389.145C124.241 389.145 138.654 391.585 139.473 385.475C140.291 379.365 132.064 376.105 125.059 375.705C118.055 375.305 76.0689 378.145 76.0689 378.145C76.0689 378.145 68.6602 387.915 95.4145 389.545L124.241 389.145Z" fill="#8BBAE9"/>
<path opacity="0.1" d="M131.69 394.115L130.416 400.955L118.065 409.505C118.065 409.505 116.953 408.565 115.114 407.075L131.447 393.825L131.69 394.115Z" fill="black"/>
<path d="M213.186 487.355C212.62 487.081 212.047 486.791 211.467 486.485L209.961 484.585L190.07 459.585V460.025C189.939 464.175 188.503 497.275 177.325 500.325C165.388 503.585 150.975 504.395 144.395 482.405C137.815 460.415 125.868 412.355 113.517 409.505L131.831 394.635C131.831 394.635 143.96 408.635 148.913 422.115C148.731 421.255 140.352 382.545 147.265 375.705H207.364C207.364 375.705 216.622 401.845 223.01 414.805C227.963 424.865 235.392 448.645 240.193 464.735C244.943 480.655 228.347 494.655 213.186 487.355Z" fill="#8BBAE9"/>
<path opacity="0.1" d="M211.508 383.025C202.239 388.455 161.486 386.245 148.205 385.365L144.597 385.105C144.203 385.105 144.657 384.885 144.657 384.885L145.031 381.185L154.906 356.345L207.808 326.025C206.737 329.215 206.373 334.105 206.464 339.715C206.727 357.695 211.508 383.025 211.508 383.025Z" fill="black"/>
<path d="M211.508 381.815C202.239 387.245 161.486 385.035 148.205 384.155L144.597 383.895H144L144.657 383.725L147.912 382.875L154.906 355.175L207.808 324.835C206.737 328.025 206.373 332.915 206.464 338.525C206.727 356.475 211.508 381.815 211.508 381.815Z" fill="#DDD8DD"/>
<path opacity="0.1" d="M206.464 338.485C195.71 340.935 172.038 348.145 162.942 365.485C156.877 377.065 151.824 382.035 148.215 384.115L144.607 383.855L144.668 383.635L147.922 382.785L154.916 355.085L207.819 324.745C206.727 328.025 206.373 332.875 206.464 338.485Z" fill="black"/>
<path opacity="0.1" d="M23.3788 347.195L35.73 354.525C34.4868 354.835 32.9101 356.015 31.1413 357.735C30.1305 354.735 23.6416 350.615 20.7104 348.855C22.3074 347.775 23.3788 347.195 23.3788 347.195Z" fill="black"/>
<path opacity="0.1" d="M142.434 384.365C142.296 384.441 142.137 384.471 141.981 384.451C141.825 384.431 141.679 384.363 141.565 384.255C141.847 384.334 142.14 384.371 142.434 384.365V384.365Z" fill="black"/>
<path d="M170.34 261.255C170.34 261.255 159.222 262.475 151.399 254.335C151.399 254.335 118.469 263.705 107.351 284.885C96.2331 306.065 20.4883 347.605 20.4883 347.605C20.4883 347.605 33.6279 354.935 32.4251 358.605L82.2343 330.095C82.2343 330.095 99.9324 317.465 104.875 314.615C109.817 311.765 136.986 294.255 142.747 341.905C148.508 389.555 142.747 383.905 142.747 383.905C142.747 383.905 150.985 386.755 162.962 363.905C174.939 341.055 211.953 335.805 211.953 335.805L213.974 311.805C213.974 311.805 221.322 295.885 215.692 289.245C213.975 287.291 212.835 284.907 212.397 282.355C211.457 276.255 212.397 266.085 225.537 257.635C245.752 244.635 253.534 234.015 253.534 234.015C253.534 234.015 253.949 226.275 241.598 222.615C229.246 218.955 179.023 198.995 179.023 198.995L177.375 205.915L216.895 233.615C216.895 233.615 197.135 249.495 181.519 249.095C181.459 249.025 184.339 260.845 170.34 261.255Z" fill="#CBCAD2"/>
<path opacity="0.1" d="M177.971 242.285C176.998 239.003 176.238 235.663 175.697 232.285L153.875 238.025C154.831 242.145 154.66 246.442 153.38 250.475C157.84 251.652 162.551 251.502 166.925 250.043C171.299 248.585 175.142 245.883 177.971 242.275V242.285Z" fill="black"/>
<path d="M159.849 250.055C172.811 250.055 183.318 239.659 183.318 226.835C183.318 214.011 172.811 203.615 159.849 203.615C146.887 203.615 136.379 214.011 136.379 226.835C136.379 239.659 146.887 250.055 159.849 250.055Z" fill="#FFBDC6"/>
<path opacity="0.1" d="M172.322 174.025C178.831 174.755 185.027 177.525 191.435 179.025C193.036 179.522 194.742 179.587 196.377 179.215C198.864 178.455 200.885 175.875 203.452 175.955C205.039 175.955 206.485 177.075 207.758 178.105C209.868 179.688 211.851 181.43 213.691 183.315C218.108 188.065 220.857 194.465 224.89 199.625C228.923 204.785 235.281 208.805 241.011 206.435C237.12 221.435 224.344 232.905 210.538 233.835C205.029 234.205 199.42 233.075 194.052 234.675C192.722 235.211 191.319 235.548 189.888 235.675C186.856 235.675 184.349 232.885 182.429 230.175C177.941 223.795 174.343 216.555 169.289 210.745C167.622 208.825 165.651 206.995 163.296 206.645C160.941 206.295 158.768 207.405 156.665 208.485C153.198 210.265 149.651 212.105 146.962 215.145C144.274 218.185 142.576 222.735 143.687 226.855C144.284 229.075 145.658 231.075 145.709 233.405C145.709 237.105 142.454 239.815 141.797 243.405C141.653 244.92 141.599 246.443 141.636 247.965C141.342 252.905 138.088 256.965 134.672 260.055C133.347 261.265 131.872 262.555 131.488 264.425C131.225 265.695 131.488 267.045 131.316 268.335C130.821 271.545 127.586 273.165 124.726 273.585C121.385 274.069 117.974 273.669 114.841 272.425C118.884 270.555 121.299 265.225 120.37 260.425C119.096 253.815 112.385 249.075 112.951 242.335C113.267 240.271 113.894 238.265 114.811 236.385C116.275 232.749 117.339 228.967 117.984 225.105C118.646 222.132 118.58 219.047 117.792 216.105C116.933 213.515 115.184 211.455 113.689 209.265C111.663 206.287 110.064 203.047 108.938 199.635C108.53 198.626 108.374 197.536 108.483 196.455C108.809 195.18 109.513 194.031 110.505 193.155C114.184 189.345 118.126 185.375 123.018 184.275C125.355 183.89 127.732 183.799 130.093 184.005C134.214 184.135 138.339 183.961 142.434 183.485C145.81 183.095 151.531 183.145 154.381 180.965C157.039 178.965 158.545 176.415 161.83 175.135C165.183 173.92 168.785 173.539 172.322 174.025V174.025Z" fill="black"/>
<path opacity="0.1" d="M185.37 413.785C185.37 413.785 198.954 440.255 194.841 448.405Z" fill="black"/>
<path opacity="0.1" d="M210.002 484.585L190.111 459.585V460.025C190.111 460.025 188.958 451.945 192.749 454.665C201.047 460.605 214.328 470.345 214.611 472.025C214.894 473.705 211.922 480.445 210.002 484.585Z" fill="black"/>
<g opacity="0.1">
<path opacity="0.1" d="M181.853 249.025C181.853 249.025 183.53 255.905 178.103 259.345C186.462 257.925 186.825 251.495 186.573 248.695C185.013 248.945 183.433 249.055 181.853 249.025V249.025Z" fill="black"/>
<path opacity="0.1" d="M25.4408 345.975C25.4408 345.975 101.186 304.435 112.304 283.255C120.278 268.055 139.493 258.945 149.701 255.005C142.252 257.475 117.186 266.945 107.766 284.885C96.6474 306.065 20.9026 347.605 20.9026 347.605L25.4408 345.975Z" fill="black"/>
<path opacity="0.1" d="M196.589 245.795C209.476 241.795 221.797 231.925 221.797 231.925L182.277 204.225L183.177 200.425L179.397 198.925L177.749 205.845L217.269 233.545C210.927 238.477 203.978 242.593 196.589 245.795V245.795Z" fill="black"/>
<path opacity="0.1" d="M196.842 339.655C201.892 337.949 207.074 336.655 212.337 335.785L212.407 334.995C207.105 336.147 201.901 337.705 196.842 339.655V339.655Z" fill="black"/>
<path opacity="0.1" d="M148.943 382.325H148.579C148.441 382.401 148.283 382.431 148.126 382.411C147.97 382.392 147.824 382.323 147.71 382.215C147.993 382.293 148.286 382.33 148.579 382.325C149.934 381.545 151.965 375.465 147.71 340.265C143.162 302.685 125.312 305.635 115.538 309.955C125.524 307.235 139.27 309.585 143.182 341.895C147.437 377.095 145.405 383.185 144.051 383.955C145.807 383.89 147.506 383.324 148.943 382.325Z" fill="black"/>
<path opacity="0.1" d="M144.051 383.965C143.758 383.97 143.465 383.933 143.182 383.855C143.296 383.963 143.442 384.031 143.598 384.051C143.755 384.071 143.913 384.041 144.051 383.965V383.965Z" fill="black"/>
</g>
<path d="M172.322 173.235C178.831 173.965 185.027 176.735 191.435 178.235C193.036 178.732 194.742 178.797 196.377 178.425C198.864 177.665 200.885 175.085 203.452 175.165C205.039 175.165 206.485 176.285 207.758 177.315C209.868 178.898 211.851 180.64 213.691 182.525C218.108 187.275 220.857 193.675 224.89 198.835C228.923 203.995 235.281 208.015 241.011 205.645C237.12 220.645 224.344 232.115 210.538 233.045C205.029 233.415 199.42 232.285 194.052 233.885C192.722 234.421 191.319 234.758 189.888 234.885C186.856 234.885 184.349 232.095 182.429 229.385C177.941 223.005 174.343 215.765 169.289 209.955C167.622 208.035 165.651 206.205 163.296 205.855C160.941 205.505 158.768 206.615 156.665 207.695C153.198 209.475 149.651 211.315 146.962 214.355C144.274 217.395 142.576 221.945 143.687 226.065C144.284 228.285 145.658 230.285 145.709 232.615C145.709 236.315 142.454 239.025 141.797 242.615C141.653 244.13 141.599 245.653 141.636 247.175C141.342 252.115 138.088 256.175 134.672 259.265C133.347 260.475 131.872 261.765 131.488 263.635C131.225 264.905 131.488 266.255 131.316 267.545C130.821 270.755 127.586 272.375 124.726 272.795C121.385 273.279 117.974 272.879 114.841 271.635C118.884 269.765 121.299 264.435 120.37 259.635C119.096 253.025 112.385 248.285 112.951 241.545C113.267 239.481 113.894 237.475 114.811 235.595C116.275 231.959 117.339 228.177 117.984 224.315C118.646 221.342 118.58 218.257 117.792 215.315C116.933 212.725 115.184 210.665 113.689 208.475C111.663 205.497 110.064 202.257 108.938 198.845C108.53 197.836 108.374 196.746 108.483 195.665C108.809 194.39 109.513 193.241 110.505 192.365C114.184 188.555 118.126 184.585 123.018 183.485C125.355 183.1 127.732 183.009 130.093 183.215C134.214 183.344 138.339 183.171 142.434 182.695C145.81 182.305 151.531 182.355 154.381 180.175C157.039 178.175 158.545 175.625 161.83 174.345C165.183 173.13 168.785 172.749 172.322 173.235V173.235Z" fill="#A66477"/>
<path d="M1020.22 114.09C1020.22 113.96 1020.22 113.84 1020.22 113.72C1020.22 113.6 1020.22 113.46 1020.16 113.34H1020C1020 113.07 1020 112.8 1020 112.51C1019.59 103.24 1006.64 83.5099 1001.44 89.2699C996.893 94.3299 1003.76 107.13 1007.25 112.89L1007.57 113.41L1007.39 113.3C1007.39 113.3 992.931 155.98 991.223 157.64C989.515 159.3 977.608 192.86 961.912 196.64C958.809 197.37 956.231 198.03 954.068 198.64L954.24 198.07C955.251 194.8 956.494 191.71 956.999 188.07C957.505 184.43 956.999 180.02 955.14 178.25C954.23 177.37 953.118 177.25 952.37 175.85C951.885 174.622 951.625 173.318 951.602 172L950.268 155.82L951.198 155.54C956.818 153.76 962.265 149.54 962.902 143.86C962.707 143.933 962.508 143.997 962.306 144.05C962.38 143.72 962.437 143.386 962.478 143.05C957.757 144.89 953.381 140.05 948.833 137.88C941.343 134.25 932.782 137.67 925.05 138.5C916.287 139.45 907.968 135.85 899.013 136.5C894.142 136.87 888.724 140.14 888.987 144.89C889.138 147.5 891.008 149.71 891.776 152.21C893.717 158.26 889.401 164.33 885.621 169.49C883.135 172.88 880.749 177.01 880.325 180.99C871.622 171.99 862.212 161.59 861.121 157.68L835.943 115C835.943 115 835.347 115.63 834.387 116.56C834.235 116.1 834.053 115.56 833.851 115.02C830.637 106.11 821.54 84.5199 810.008 88.4799C798.475 92.4399 814.788 114.57 821.884 123.39L822.895 124.61C822.3 124.755 821.675 124.727 821.095 124.53L849.174 172.18C849.174 172.18 854.278 181.3 858.958 183.78C858.958 183.78 893.838 227.29 894.263 235.99C894.687 244.69 909.95 267.9 909.95 267.9C909.95 267.9 915.054 305.61 906.119 312.24H906.23H906.301H906.412H906.513H906.715H906.847H906.978H907.15H907.291H907.493H907.595C907.17 312.65 906.735 313.1 906.291 313.59C899.67 320.85 891.21 336.41 902.773 362.87C919.784 401.87 922.341 417.15 922.341 417.15C922.341 417.15 889.998 418.81 883.63 420.05C877.99 421.15 856.067 421.92 851.054 422.05C849.265 419.99 843.979 415.43 836.843 422.05C827.908 430.34 821.53 458.05 821.53 458.05C821.53 458.05 818.124 480.43 829.616 474.62C829.616 474.62 843.231 455.97 847.051 455.14C848.951 454.73 850.963 451.96 852.499 449.29L852.58 449.34C852.671 449.34 853.045 449.14 853.651 448.9C856.481 447.79 864.274 445.12 870.42 446.45C873.785 447.18 888.219 447.35 903.349 447.31C899.933 455.41 893.808 476.31 893.808 476.31C893.808 476.31 891.251 495.8 899.741 495C905.806 494.41 915.104 479.08 919.956 470.33C923.473 467.78 933.55 458.64 940.999 459.33L991.193 440.27C991.193 440.27 1003.1 433.64 996.721 411.68C991.668 394.22 977.285 358.48 971.605 344.55L971.433 344.19C970.058 340.82 969.229 338.82 969.229 338.82C966.896 332.461 965.365 325.84 964.671 319.11C964.62 318.58 964.58 318.04 964.54 317.51C965.243 317.218 965.905 316.838 966.511 316.38C966.511 316.38 961.831 269.56 966.511 264.58L966.591 264.49V264.43L966.672 264.33L966.854 264.1L967.077 263.82C967.329 263.49 967.632 263.08 967.976 262.58C970.655 258.7 975.648 249.84 974.212 239.38C974.152 238.927 974.078 238.47 973.99 238.01C973.44 235.173 972.459 232.435 971.079 229.89C970.877 228.83 970.752 227.757 970.705 226.68C970.705 226.07 970.705 225.4 970.705 224.68V224.56C970.705 224.367 970.705 224.173 970.705 223.98V223.84C970.705 223.37 970.786 222.84 970.857 222.4V222.22C970.857 222.04 970.887 221.857 970.948 221.67V221.44C970.948 221.26 971.028 221.08 971.069 220.9V220.71C971.13 220.47 971.19 220.23 971.271 219.99V219.87C971.332 219.67 971.399 219.473 971.473 219.28L971.564 219.05L971.766 218.57L971.867 218.33C971.948 218.15 972.039 217.97 972.13 217.79L972.201 217.64C972.322 217.42 972.45 217.203 972.585 216.99L972.696 216.82L973.03 216.35L973.191 216.14L973.545 215.72L973.707 215.54C973.889 215.35 974.071 215.16 974.273 214.98C979.802 209.98 1004.47 173.13 1004.47 173.13C1004.47 173.13 1010.43 164.84 1010.43 159.46C1010.76 159.34 1021.28 124.64 1020.22 114.09ZM953.987 423.84C953.381 418.16 952.775 411.12 952.219 403.84L961.841 418.68C961.841 418.68 960.931 423.2 953.987 423.84Z" fill="url(#paint2_linear)"/>
<path d="M853.662 420.7C853.662 420.7 847.9 411.7 839.248 419.89C830.596 428.08 824.431 455.32 824.431 455.32C824.431 455.32 821.136 477.32 832.254 471.61C832.254 471.61 845.394 453.28 849.133 452.47C852.873 451.66 856.957 441.47 856.957 441.47L853.662 420.7Z" fill="#493545"/>
<path d="M915.408 442.69C915.408 442.69 907.585 439.02 905.118 441.88C902.652 444.74 894.415 473.24 894.415 473.24C894.415 473.24 891.949 491.98 900.176 491.16C908.403 490.34 922.817 461 922.817 461L915.408 442.69Z" fill="#493545"/>
<path opacity="0.05" d="M915.408 442.69C915.408 442.69 907.585 439.02 905.118 441.88C902.652 444.74 894.415 473.24 894.415 473.24C894.415 473.24 891.949 491.98 900.176 491.16C908.403 490.34 922.817 461 922.817 461L915.408 442.69Z" fill="black"/>
<path d="M942.576 387.3L960.274 414.59C960.274 414.59 959.041 420.7 948.337 419.48L911.698 442.29C911.698 442.29 908.514 470.06 918.692 467.54C920.34 467.13 931.832 455.32 940.1 456.14L988.686 437.4C988.686 437.4 1000.21 430.88 994.033 409.3C987.857 387.72 967.44 337.68 967.44 337.68L935.167 355.54L942.576 387.3Z" fill="#3E3D77"/>
<path opacity="0.05" d="M942.576 387.3L960.274 414.59C960.274 414.59 959.041 420.7 948.337 419.48L911.698 442.29C911.698 442.29 908.514 470.06 918.692 467.54C920.34 467.13 931.832 455.32 940.1 456.14L988.686 437.4C988.686 437.4 1000.21 430.88 994.033 409.3C987.857 387.72 967.44 337.68 967.44 337.68L935.167 355.54L942.576 387.3Z" fill="black"/>
<path d="M953.694 427.62C956.16 443.1 942.172 444.32 942.172 444.32C942.172 444.32 879.182 445.54 871.774 443.91C864.365 442.28 854.48 446.76 854.48 446.76C841.714 439.02 852.014 419.88 852.014 419.88C852.014 419.88 878.364 419.07 884.539 417.88C890.715 416.69 921.997 415 921.997 415C921.997 415 919.531 399.93 903.056 361.65C891.867 335.65 900.024 320.35 906.462 313.22C908.105 311.328 910.007 309.672 912.112 308.3L962.75 310.74C962.696 313.267 962.79 315.794 963.033 318.31C963.899 326.947 966.169 335.389 969.755 343.31C966.874 343.31 948.347 360.42 948.347 360.42C948.347 360.42 951.218 412.15 953.694 427.62Z" fill="#3E3D77"/>
<path opacity="0.1" d="M855.714 421.51C855.714 421.51 882.063 420.7 888.239 419.51C894.415 418.32 925.697 416.66 925.697 416.66C925.697 416.66 923.231 401.59 906.756 363.31C895.567 337.31 903.724 322.01 910.162 314.88C911.805 312.988 913.707 311.332 915.812 309.96L962.73 312.22C962.73 311.74 962.73 311.22 962.73 310.77L912.092 308.33C909.987 309.702 908.085 311.358 906.442 313.25C900.034 320.39 891.847 335.68 903.036 361.68C919.552 399.93 921.998 415 921.998 415C921.998 415 890.665 416.63 884.54 417.85C878.415 419.07 852.014 419.85 852.014 419.85C852.014 419.85 841.725 439 854.48 446.77C854.48 446.77 854.864 446.59 855.491 446.33C847.011 437.7 855.714 421.51 855.714 421.51Z" fill="black"/>
<path d="M931.044 158.81H905.522V222.75H931.044V158.81Z" fill="#493545"/>
<path opacity="0.1" d="M931.044 158.81H905.522V222.75H931.044V158.81Z" fill="black"/>
<path d="M945.639 149.43C946.518 149.67 947.509 149.7 948.105 150.9C948.475 151.859 948.677 152.874 948.702 153.9L950.309 173.66C950.331 174.954 950.584 176.233 951.056 177.44C951.734 178.78 952.856 178.94 953.735 179.8C955.504 181.54 956.019 185.9 955.534 189.45C955.049 193 953.826 196.04 952.866 199.25C951.491 203.85 950.581 209.02 948.651 212.9C946.72 216.78 943.213 218.9 940.949 215.64C938.685 212.38 938.988 205.8 938.564 200.41C937.856 191.41 934.309 183.65 934.066 174.59C933.864 167.26 935.855 160.42 937.098 153.47C937.988 148.7 938.038 142.91 939.332 138.62C940.413 143.72 942.475 148.57 945.639 149.43Z" fill="#493545"/>
<path opacity="0.1" d="M945.639 149.43C946.518 149.67 947.509 149.7 948.105 150.9C948.475 151.859 948.677 152.874 948.702 153.9L950.309 173.66C950.331 174.954 950.584 176.233 951.056 177.44C951.734 178.78 952.856 178.94 953.735 179.8C955.504 181.54 956.019 185.9 955.534 189.45C955.049 193 953.826 196.04 952.866 199.25C951.491 203.85 950.581 209.02 948.651 212.9C946.72 216.78 943.213 218.9 940.949 215.64C938.685 212.38 938.988 205.8 938.564 200.41C937.856 191.41 934.309 183.65 934.066 174.59C933.864 167.26 935.855 160.42 937.098 153.47C937.988 148.7 938.038 142.91 939.332 138.62C940.413 143.72 942.475 148.57 945.639 149.43Z" fill="black"/>
<path d="M837.6 121.34L827.726 129.49C827.726 129.49 826.553 128.13 824.805 125.93C817.942 117.26 802.164 95.5098 813.312 91.6198C824.461 87.7298 833.274 108.94 836.388 117.7C837.176 119.92 837.6 121.34 837.6 121.34Z" fill="#DEA5B0"/>
<path d="M1015.85 118.49C1011.74 124.6 1005.98 118.49 1005.98 118.49C1005.98 118.49 1005.24 117.4 1004.2 115.64C1000.81 109.97 994.174 97.3999 998.571 92.4199C1003.62 86.7299 1016.15 106.15 1016.53 115.26C1016.65 116.38 1016.41 117.509 1015.85 118.49V118.49Z" fill="#DEA5B0"/>
<path d="M914.579 184.47C914.579 184.47 922.816 210.54 920.34 218.27C917.864 226 938.048 235 938.048 235H961.103C961.103 235 969.34 218.3 967.278 213.41C965.217 208.52 947.519 204.86 947.519 204.86C947.519 204.86 937.229 204.86 937.644 177.57L914.579 184.47Z" fill="#DEA5B0"/>
<path opacity="0.1" d="M837.601 121.34L827.726 129.49C827.726 129.49 826.554 128.13 824.805 125.93C828.393 125.3 833.962 120.12 836.398 117.7C837.177 119.92 837.601 121.34 837.601 121.34Z" fill="black"/>
<path opacity="0.1" d="M1015.85 118.49C1011.74 124.6 1005.98 118.49 1005.98 118.49C1005.98 118.49 1005.24 117.4 1004.2 115.64L1004.33 115.23C1007 117.12 1015.3 115.51 1016.53 115.23C1016.66 116.36 1016.42 117.5 1015.85 118.49V118.49Z" fill="black"/>
<path opacity="0.1" d="M963.013 318.3C950.278 324.05 908.899 313.81 906.412 313.2C908.055 311.308 909.957 309.652 912.062 308.28L962.7 310.72C962.655 313.25 962.76 315.781 963.013 318.3V318.3Z" fill="black"/>
<path d="M919.936 206.87C919.936 206.87 910.061 210.13 896.062 197.5C896.062 197.5 864.729 166.95 862.708 159.62L838.45 117.62C838.45 117.62 828.16 128.62 824.037 126.99L851.205 173.83C851.205 173.83 856.148 182.83 860.676 185.23C860.676 185.23 894.435 228 894.839 236.55C895.243 245.1 910.05 268 910.05 268C910.05 268 914.993 305.06 906.341 311.58C906.341 311.58 954.503 323.8 964.792 315.65C964.792 315.65 960.264 269.65 964.792 264.74C964.792 264.74 978.791 248.45 969.32 230.53C969.32 230.53 967.299 220.76 972.615 215.87C977.932 210.98 1001.85 174.73 1001.85 174.73C1001.85 174.73 1007.61 166.58 1007.61 161.29C1007.61 161.29 1018.31 125.45 1016.7 116.08C1016.7 116.08 1007.23 118.08 1004.35 116.08C1004.35 116.08 990.354 158.08 988.706 159.66C987.059 161.24 975.567 194.28 960.304 197.95C945.042 201.62 942.606 203.24 942.606 203.24C942.606 203.24 972.241 221.57 957.838 229.71C943.435 237.85 919.936 206.87 919.936 206.87Z" fill="#356DA2"/>
<path opacity="0.1" d="M938.644 190.74C938.155 186.903 937.956 183.036 938.048 179.17L914.993 186.09C915.6 187.609 916.083 189.174 916.439 190.77C919.077 191.92 922.634 194.64 925.697 194.64C930.33 194.79 934.882 193.418 938.644 190.74V190.74Z" fill="black"/>
<path d="M925.282 193.43C937.105 193.43 946.69 183.947 946.69 172.25C946.69 160.552 937.105 151.07 925.282 151.07C913.459 151.07 903.875 160.552 903.875 172.25C903.875 183.947 913.459 193.43 925.282 193.43Z" fill="#DEA5B0"/>
<path opacity="0.1" d="M899.812 139.62C895.102 139.98 889.846 143.2 890.109 147.87C890.25 150.44 892.029 152.61 892.807 155.07C894.677 161.02 890.513 166.99 886.854 172.07C883.195 177.15 879.779 183.88 882.912 189.26C883.805 190.555 884.77 191.8 885.803 192.99C889.674 198.16 889.624 205.14 891.342 211.35C893.536 219.295 898.723 226.106 905.837 230.384C912.95 234.661 921.45 236.081 929.588 234.35C926.524 230.481 924.997 225.636 925.293 220.73C925.525 217.17 926.687 213.45 925.293 210.16C923.493 205.93 918.217 204.26 915.499 200.56C912.78 196.86 912.962 191.73 914.276 187.32C915.59 182.91 917.864 178.82 918.955 174.32C919.225 173.007 919.562 171.709 919.966 170.43C921.866 165.09 927.547 161.99 933.106 160.66C938.665 159.33 944.507 159.25 949.934 157.5C955.362 155.75 960.638 151.65 961.265 146.02C956.696 147.83 952.461 143.11 948.054 140.94C940.797 137.38 932.519 140.73 925.04 141.55C916.519 142.49 908.433 139 899.812 139.62Z" fill="black"/>
<path d="M899.397 138.81C894.687 139.17 889.431 142.39 889.694 147.06C889.836 149.63 891.615 151.8 892.393 154.26C894.263 160.21 890.099 166.18 886.44 171.26C882.781 176.34 879.364 183.07 882.498 188.45C883.391 189.745 884.356 190.99 885.388 192.18C889.26 197.35 889.209 204.33 890.927 210.54C893.122 218.485 898.309 225.296 905.422 229.574C912.536 233.851 921.035 235.271 929.174 233.54C926.11 229.671 924.582 224.826 924.878 219.92C925.111 216.36 926.273 212.64 924.878 209.35C923.079 205.12 917.803 203.45 915.084 199.75C912.365 196.05 912.547 190.92 913.861 186.51C915.175 182.1 917.449 178.01 918.541 173.51C918.81 172.197 919.148 170.899 919.551 169.62C921.452 164.28 927.132 161.18 932.691 159.85C938.25 158.52 944.092 158.44 949.52 156.69C954.948 154.94 960.224 150.84 960.85 145.21C956.282 147.02 952.047 142.3 947.64 140.13C940.383 136.57 932.105 139.92 924.625 140.74C916.125 141.67 908.069 138.14 899.397 138.81Z" fill="#493545"/>
<path opacity="0.1" d="M946.487 219.3C946.487 219.3 955.058 226.87 956.746 230.21Z" fill="black"/>
<path opacity="0.1" d="M965.035 264.51C965.035 264.51 954.331 264.51 949.389 265.73C944.446 266.95 932.509 265.73 932.509 265.73" fill="black"/>
<g opacity="0.1">
<path opacity="0.1" d="M957.808 229.68C956.886 230.202 955.887 230.58 954.847 230.8C957.532 231.389 960.341 230.991 962.751 229.68C977.164 221.53 947.519 203.21 947.519 203.21H942.577C942.577 203.21 972.222 221.54 957.808 229.68Z" fill="black"/>
<path opacity="0.1" d="M1016.77 116.79C1016.77 116.53 1016.71 116.28 1016.67 116.05C1014.98 116.397 1013.27 116.654 1011.55 116.82C1013.29 117.009 1015.04 116.999 1016.77 116.79V116.79Z" fill="black"/>
<path opacity="0.1" d="M911.294 311.55C919.936 305.03 915.004 267.97 915.004 267.97C915.004 267.97 900.186 245.16 899.772 236.61C899.357 228.06 865.609 185.29 865.609 185.29C861.081 182.85 856.138 173.89 856.138 173.89C856.138 173.89 828.141 128.68 824.027 127.05L851.196 173.89C851.196 173.89 856.138 182.89 860.666 185.29C860.666 185.29 894.425 228.06 894.829 236.61C895.233 245.16 910.051 268 910.051 268C910.051 268 914.993 305.06 906.341 311.58C906.341 311.58 935.946 319.09 953.695 318.41C935.906 317.79 911.294 311.55 911.294 311.55Z" fill="black"/>
<path opacity="0.1" d="M920.178 207.19L919.936 206.88C919.654 206.962 919.367 207.026 919.077 207.07C919.461 207.12 919.825 207.16 920.178 207.19Z" fill="black"/>
</g>
<g opacity="0.1">
<path opacity="0.1" d="M1016.67 116L1016.42 116.05C1015.99 128.56 1007.21 157.95 1007.21 157.95C1007.21 163.24 1001.45 171.39 1001.45 171.39C1001.45 171.39 977.578 207.64 972.221 212.53C966.864 217.42 968.926 227.19 968.926 227.19L968.977 227.29C968.815 224 969.219 218.9 972.626 215.78C977.972 210.89 1001.86 174.64 1001.86 174.64C1001.86 174.64 1007.62 166.49 1007.62 161.2C1007.62 161.26 1018.32 125.42 1016.67 116Z" fill="black"/>
<path opacity="0.1" d="M964.398 261.45C965.015 264.91 964.6 261.25 964.812 264.71C964.812 264.71 974.92 252.98 972.16 238.48C972.989 251.44 964.398 261.45 964.398 261.45Z" fill="black"/>
</g>
<defs>
<linearGradient id="paint0_linear" x1="387.004" y1="492.623" x2="387.004" y2="492.575" gradientUnits="userSpaceOnUse">
<stop stop-color="#808080" stop-opacity="0.25"/>
<stop offset="0.54" stop-color="#808080" stop-opacity="0.12"/>
<stop offset="1" stop-color="#808080" stop-opacity="0.1"/>
</linearGradient>
<linearGradient id="paint1_linear" x1="65087.1" y1="202218" x2="65087.1" y2="90674.8" gradientUnits="userSpaceOnUse">
<stop stop-color="#808080" stop-opacity="0.25"/>
<stop offset="0.54" stop-color="#808080" stop-opacity="0.12"/>
<stop offset="1" stop-color="#808080" stop-opacity="0.1"/>
</linearGradient>
<linearGradient id="paint2_linear" x1="183528" y1="245116" x2="183528" y2="79457.7" gradientUnits="userSpaceOnUse">
<stop stop-color="#808080" stop-opacity="0.25"/>
<stop offset="0.54" stop-color="#808080" stop-opacity="0.12"/>
<stop offset="1" stop-color="#808080" stop-opacity="0.1"/>
</linearGradient>
</defs>
</svg>
