<svg width="1146" height="818" viewBox="0 0 1146 818" fill="none" xmlns="http://www.w3.org/2000/svg">
<g clip-path="url(#clip0)">
<path opacity="0.1" d="M1145.7 454.1C1145.68 492.877 1137.24 531.188 1120.97 566.389C1104.71 601.589 1081 632.842 1051.48 657.989C1021.96 683.136 987.339 701.58 950.001 712.048C912.663 722.516 873.498 724.758 835.21 718.62H410.5C394.096 720.871 377.558 722 361 722C199.65 722 62.9999 616.14 16.7799 470.09C5.62432 434.803 -0.035232 398.009 -8.1409e-05 361C-8.1409e-05 161.62 161.63 0 361 0C521.57 0 657.63 104.81 704.52 249.81C752.887 208.657 814.345 186.102 877.85 186.2C1025.76 186.2 1145.7 306.14 1145.7 454.1Z" fill="#437FC7"/>
<path opacity="0.1" d="M1042.79 665.17C1013.72 687.867 980.285 704.328 944.569 713.525C908.854 722.721 871.626 724.456 835.21 718.62H410.5C394.096 720.871 377.558 722 361 722C199.65 722 63 616.14 16.78 470.09C51.35 396.2 140.19 343.62 244.35 343.62C345.85 343.62 432.8 393.56 469.16 464.49C487.04 461.239 505.177 459.609 523.35 459.62C628.55 459.62 718.12 513.27 751.94 588.33C779.955 579.838 809.076 575.555 838.35 575.62C924.15 575.62 999.56 611.3 1042.79 665.17Z" fill="#437FC7"/>
<path d="M749.35 317.62H275.35V354.62H749.35V317.62Z" fill="white"/>
<path d="M749.35 397.62H275.35V434.62H749.35V397.62Z" fill="white"/>
<path d="M749.35 477.62H275.35V514.62H749.35V477.62Z" fill="white"/>
<path d="M844.97 333.2L842.45 335.72L850.55 343.82L868.55 325.82L866.03 323.3L850.55 338.69L844.97 333.2ZM866.75 336.62C866.748 339.624 865.802 342.552 864.047 344.99C862.291 347.427 859.814 349.252 856.966 350.207C854.117 351.161 851.041 351.197 848.171 350.309C845.301 349.421 842.783 347.654 840.971 345.257C839.159 342.861 838.146 339.956 838.074 336.953C838.002 333.949 838.875 330.999 840.57 328.519C842.265 326.039 844.696 324.153 847.521 323.129C850.345 322.104 853.419 321.993 856.31 322.81L859.1 320.02C856.968 319.107 854.669 318.648 852.35 318.67C848.79 318.67 845.31 319.726 842.35 321.704C839.39 323.681 837.083 326.493 835.72 329.782C834.358 333.071 834.001 336.69 834.696 340.182C835.391 343.673 837.105 346.881 839.622 349.398C842.14 351.915 845.347 353.63 848.838 354.324C852.33 355.019 855.949 354.662 859.238 353.3C862.527 351.937 865.339 349.63 867.317 346.67C869.294 343.71 870.35 340.23 870.35 336.67L866.75 336.62Z" fill="#3ACC6C"/>
<path d="M844.97 413.2L842.45 415.72L850.55 423.82L868.55 405.82L866.03 403.3L850.55 418.69L844.97 413.2ZM866.75 416.62C866.748 419.624 865.802 422.552 864.047 424.99C862.291 427.427 859.814 429.252 856.966 430.207C854.117 431.161 851.041 431.197 848.171 430.309C845.301 429.421 842.783 427.654 840.971 425.257C839.159 422.861 838.146 419.956 838.074 416.953C838.002 413.949 838.875 410.999 840.57 408.519C842.265 406.039 844.696 404.153 847.521 403.129C850.345 402.104 853.419 401.993 856.31 402.81L859.1 400.02C856.968 399.107 854.669 398.648 852.35 398.67C848.79 398.67 845.31 399.726 842.35 401.704C839.39 403.681 837.083 406.493 835.72 409.782C834.358 413.071 834.001 416.69 834.696 420.182C835.391 423.673 837.105 426.881 839.622 429.398C842.14 431.915 845.347 433.63 848.838 434.324C852.33 435.019 855.949 434.662 859.238 433.3C862.527 431.937 865.339 429.63 867.317 426.67C869.294 423.71 870.35 420.23 870.35 416.67L866.75 416.62Z" fill="#3ACC6C"/>
<path opacity="0.1" d="M627 801C908.665 801 1137 789.583 1137 775.5C1137 761.417 908.665 750 627 750C345.335 750 117 761.417 117 775.5C117 789.583 345.335 801 627 801Z" fill="#437FC7"/>
<path opacity="0.1" d="M908.37 249.47C907.508 248.237 907.034 246.774 907.01 245.27C907.01 236.16 925.59 228.77 948.51 228.77C971.43 228.77 990.01 236.16 990.01 245.27C989.965 246.979 989.361 248.627 988.29 249.96C1013.81 252.8 1031.01 258.14 1031.01 264.27C1031.01 273.38 992.95 280.77 946.01 280.77C899.07 280.77 861.01 273.38 861.01 264.27C861.01 257.81 880.31 252.17 908.37 249.47Z" fill="#437FC7"/>
<path opacity="0.1" d="M759.3 74.45C758.6 73.441 758.214 72.2477 758.19 71.02C758.19 63.58 773.35 57.56 792.04 57.56C810.73 57.56 825.9 63.56 825.9 71.02C825.866 72.411 825.378 73.7526 824.51 74.84C845.32 77.17 859.35 81.52 859.35 86.52C859.35 93.95 828.35 99.98 790.01 99.98C751.67 99.98 720.66 93.98 720.66 86.52C720.66 81.22 736.41 76.65 759.3 74.45Z" fill="#437FC7"/>
<path opacity="0.1" d="M305.62 139.06C304.509 138.047 303.728 136.723 303.38 135.26C301.38 126.36 317.92 115.11 340.29 110.13C362.66 105.15 382.41 108.31 384.39 117.21C384.719 118.887 384.49 120.625 383.74 122.16C409.26 119.39 427.21 120.86 428.54 126.84C430.54 135.73 394.98 151.22 349.16 161.42C303.34 171.62 264.59 172.7 262.61 163.8C261.2 157.47 278.85 147.81 305.62 139.06Z" fill="#437FC7"/>
<path opacity="0.1" d="M204.58 130.62C202.25 129.27 199.1 130.56 197.5 132.73C195.9 134.9 195.45 137.73 195.05 140.36C194.16 146.27 193.51 153.06 197.5 157.52C190.98 137.75 172.23 122.6 151.5 120.39" stroke="#437FC7" stroke-width="3" stroke-miterlimit="10"/>
<path opacity="0.1" d="M407.61 223.87C406.11 223 404.09 223.87 403.06 225.23C402.147 226.713 401.605 228.393 401.48 230.13C400.91 233.94 400.48 238.3 403.06 241.13C400.864 234.783 396.93 229.181 391.705 224.961C386.481 220.741 380.177 218.073 373.51 217.26" stroke="#437FC7" stroke-width="3" stroke-miterlimit="10"/>
<path opacity="0.1" d="M738.11 164.59C736.61 163.73 734.59 164.59 733.56 165.95C732.646 167.436 732.104 169.12 731.98 170.86C731.41 174.66 730.98 179.02 733.56 181.86C731.362 175.515 727.427 169.913 722.203 165.694C716.979 161.474 710.676 158.805 704.01 157.99" stroke="#437FC7" stroke-width="3" stroke-miterlimit="10"/>
<path opacity="0.1" d="M624.39 483.7C626.07 484.07 627.05 485.76 627.83 487.29C628.355 488.25 628.797 489.254 629.15 490.29C629.613 492.04 629.798 493.852 629.7 495.66C629.736 496.808 629.615 497.955 629.34 499.07C629.045 500.194 628.329 501.16 627.34 501.77" stroke="black" stroke-miterlimit="10"/>
<path d="M875.531 512.051L740.198 647.384L683.317 590.503C679.67 586.856 674.725 584.808 669.568 584.808C664.411 584.808 659.465 586.856 655.819 590.503L653.775 587.446C646.182 595.04 648.225 610.407 655.819 618.001L729.621 691.803C732.403 694.585 736.175 696.148 740.108 696.149C744.042 696.15 747.814 694.589 750.597 691.809L903.015 539.55C910.613 531.959 913.37 518.041 905.775 510.446C898.184 502.855 883.122 504.46 875.531 512.051Z" fill="#57B894"/>
<path opacity="0.1" d="M875.531 512.051L740.198 647.384L683.317 590.503C679.67 586.856 674.725 584.808 669.568 584.808C664.411 584.808 659.465 586.856 655.819 590.503L653.775 587.446C646.182 595.04 648.225 610.407 655.819 618.001L729.621 691.803C732.403 694.585 736.175 696.148 740.108 696.149C744.042 696.15 747.814 694.589 750.597 691.809L903.015 539.55C910.613 531.959 913.37 518.041 905.775 510.446C898.184 502.855 883.122 504.46 875.531 512.051Z" fill="black"/>
<path d="M875.531 506.051L740.198 641.384L683.317 584.503C679.67 580.856 674.725 578.808 669.568 578.808C664.411 578.808 659.465 580.856 655.819 584.503V584.503C654.013 586.308 652.581 588.452 651.604 590.811C650.626 593.17 650.124 595.698 650.124 598.252C650.124 600.805 650.626 603.334 651.604 605.693C652.581 608.052 654.013 610.195 655.819 612.001L729.621 685.803C732.403 688.585 736.175 690.148 740.108 690.149C744.041 690.15 747.814 688.589 750.597 685.809L903.015 533.55C904.822 531.745 906.255 529.602 907.233 527.243C908.211 524.884 908.715 522.355 908.716 519.802C908.717 517.248 908.214 514.719 907.237 512.36C906.26 510 904.828 507.857 903.022 506.051V506.051C899.376 502.405 894.432 500.357 889.276 500.357C884.121 500.357 879.176 502.406 875.531 506.051Z" fill="#57B894"/>
<path d="M941.432 736.422C941.432 736.422 929.329 740.052 923.278 747.314C923.278 747.314 912.385 752.155 905.729 750.945C899.072 749.735 886.969 761.838 896.652 765.469C906.334 769.099 965.638 778.782 966.848 775.756C968.059 772.73 968.059 741.868 968.059 741.868L941.432 736.422Z" fill="#437FC7"/>
<path d="M1036.5 731.225C1036.5 731.225 1025.2 736.87 1020.48 745.058C1020.48 745.058 1010.57 751.689 1003.8 751.633C997.039 751.578 987.181 765.57 997.341 767.494C1007.5 769.417 1067.59 768.828 1068.26 765.64C1068.94 762.452 1063.67 732.043 1063.67 732.043L1036.5 731.225Z" fill="#437FC7"/>
<path d="M961.099 320.99C976.139 320.99 988.331 308.798 988.331 293.759C988.331 278.719 976.139 266.527 961.099 266.527C946.06 266.527 933.868 278.719 933.868 293.759C933.868 308.798 946.06 320.99 961.099 320.99Z" fill="#FFB9B9"/>
<path d="M983.187 298.297C983.187 298.297 986.213 318.872 991.659 321.293C995.449 323.158 998.92 325.608 1001.95 328.554L986.818 335.816L957.166 334.001C957.166 334.001 959.587 320.687 955.351 314.031C951.115 307.374 983.187 298.297 983.187 298.297Z" fill="#FFB9B9"/>
<path d="M1039.47 395.725C1039.47 395.725 1053.38 431.429 1039.47 465.922C1025.55 500.415 1019.5 505.862 1019.5 505.862L1015.26 460.476L1020.13 456.057C1020.13 456.057 1023.08 442.287 1020.68 434.135C1018.29 425.983 1021.92 400.566 1021.92 400.566L1039.47 395.725Z" fill="#FFB9B9"/>
<path d="M935.381 473.184C935.381 473.184 917.832 513.123 919.647 532.488C921.463 551.853 935.381 633.547 935.381 633.547C935.381 633.547 933.565 738.842 939.012 738.842C944.458 738.842 970.479 748.524 970.479 741.868C970.479 735.211 975.926 575.453 975.926 575.453C975.926 575.453 1006.79 645.65 1009.81 651.096C1012.84 656.542 1032.2 741.868 1038.86 741.868C1045.52 741.868 1066.09 735.816 1064.28 731.58C1062.46 727.344 1041.89 632.942 1030.39 608.736C1018.89 584.53 1021.31 493.154 1021.31 493.154L1001.95 450.793L935.381 473.184Z" fill="#2F2E41"/>
<path d="M952.93 281.353C952.93 281.353 935.986 280.143 934.776 275.907C933.566 271.671 931.145 268.04 932.355 268.04C933.566 268.04 934.171 265.014 934.171 265.014C934.171 265.014 935.381 264.409 935.986 265.014C936.591 265.619 937.196 260.778 937.196 260.778C937.196 260.778 937.802 258.963 938.407 260.173C939.012 261.383 939.012 260.778 939.617 258.963C940.222 257.147 943.248 255.937 943.248 255.937C943.248 255.937 954.746 256.542 956.561 254.122C958.376 251.701 978.951 253.517 983.187 256.542C987.423 259.568 1006.18 270.461 1003.16 279.538C1000.13 288.615 989.239 308.585 989.239 311.61C989.239 314.636 985.003 314.031 983.793 311.005C982.582 307.98 972.9 304.349 972.9 302.533C972.9 300.718 967.454 283.774 964.428 284.984C961.402 286.194 957.771 295.877 956.561 294.061C955.351 292.246 952.93 281.353 952.93 281.353Z" fill="#3F3D56"/>
<path d="M1036.44 364.258C1036.44 364.258 1011.63 327.949 1004.37 326.134C997.106 324.318 980.767 319.477 980.767 319.477C980.767 319.477 964.428 321.898 959.587 324.318C954.746 326.739 936.591 330.975 935.986 338.237C935.381 345.498 940.827 415.09 937.801 421.747C934.776 428.403 924.488 491.943 929.329 490.733C934.171 489.523 930.54 473.789 951.72 473.184C972.9 472.579 984.398 459.871 992.264 474.999C1000.13 490.128 1022.52 501.626 1022.52 501.626C1023.08 496.747 1023.89 491.9 1024.94 487.102C1026.76 478.63 1020.1 458.055 1020.1 458.055C1020.1 458.055 1020.71 410.249 1023.13 404.803C1025.55 399.356 1036.44 364.258 1036.44 364.258Z" fill="#437FC7"/>
<path d="M1027.36 363.048L1036.44 364.258C1036.44 364.258 1035.83 376.361 1038.26 379.992C1040.68 383.622 1044.91 402.382 1042.49 402.987C1040.07 403.592 1018.29 407.223 1018.29 407.223L1017.08 379.386L1027.36 363.048Z" fill="#437FC7"/>
<path d="M929.329 384.833C929.329 384.833 923.278 424.167 920.252 429.008C917.227 433.849 902.098 501.626 902.098 501.626C902.098 501.626 877.22 536.222 889.323 535.616C901.426 535.011 914.201 504.046 914.201 504.046C914.201 504.046 951.72 435.665 951.72 428.403C951.72 421.141 960.797 384.833 960.797 384.833H929.329Z" fill="#FFB9B9"/>
<path d="M946.879 331.58L935.986 335.816C935.986 335.816 922.068 385.438 925.094 389.674C928.119 393.91 964.428 387.858 965.033 386.043C965.638 384.228 958.376 331.58 946.879 331.58Z" fill="#437FC7"/>
</g>
<defs>
<clipPath id="clip0">
<rect width="1145.7" height="817.62" fill="white"/>
</clipPath>
</defs>
</svg>
