<svg width="1146" height="818" viewBox="0 0 1146 818" fill="none" xmlns="http://www.w3.org/2000/svg">
<g clip-path="url(#clip0)">
<path opacity="0.1" d="M1145.7 454.1C1145.68 492.877 1137.24 531.188 1120.97 566.389C1104.71 601.589 1081 632.841 1051.48 657.989C1021.96 683.136 987.339 701.58 950.001 712.048C912.663 722.516 873.498 724.758 835.21 718.62H410.5C394.096 720.871 377.558 722 361 722C199.65 722 62.9999 616.14 16.7799 470.09C5.62432 434.803 -0.035232 398.009 -8.1409e-05 361C-8.1409e-05 161.62 161.63 0 361 0C521.57 0 657.63 104.81 704.52 249.81C752.887 208.657 814.345 186.102 877.85 186.2C1025.76 186.2 1145.7 306.14 1145.7 454.1Z" fill="#437FC7"/>
<path opacity="0.1" d="M1042.79 665.17C1013.72 687.867 980.285 704.328 944.569 713.525C908.854 722.721 871.626 724.456 835.21 718.62H410.5C394.096 720.871 377.558 722 361 722C199.65 722 63 616.14 16.78 470.09C51.35 396.2 140.19 343.62 244.35 343.62C345.85 343.62 432.8 393.56 469.16 464.49C487.04 461.239 505.177 459.609 523.35 459.62C628.55 459.62 718.12 513.27 751.94 588.33C779.955 579.838 809.076 575.555 838.35 575.62C924.15 575.62 999.56 611.3 1042.79 665.17Z" fill="#437FC7"/>
<path d="M844.97 333.2L842.45 335.72L850.55 343.82L868.55 325.82L866.03 323.3L850.55 338.69L844.97 333.2ZM866.75 336.62C866.748 339.624 865.802 342.552 864.047 344.99C862.291 347.427 859.814 349.252 856.966 350.207C854.117 351.161 851.041 351.197 848.171 350.309C845.301 349.421 842.783 347.654 840.971 345.257C839.159 342.861 838.146 339.956 838.074 336.953C838.002 333.949 838.875 330.999 840.57 328.519C842.265 326.039 844.696 324.153 847.521 323.129C850.345 322.104 853.419 321.993 856.31 322.81L859.1 320.02C856.968 319.107 854.669 318.648 852.35 318.67C848.79 318.67 845.31 319.726 842.35 321.704C839.39 323.681 837.083 326.493 835.72 329.782C834.358 333.071 834.001 336.69 834.696 340.182C835.391 343.673 837.105 346.881 839.622 349.398C842.14 351.915 845.347 353.63 848.838 354.324C852.33 355.019 855.949 354.662 859.238 353.3C862.527 351.937 865.339 349.63 867.317 346.67C869.294 343.71 870.35 340.23 870.35 336.67L866.75 336.62Z" fill="#3ACC6C"/>
<path d="M844.97 413.2L842.45 415.72L850.55 423.82L868.55 405.82L866.03 403.3L850.55 418.69L844.97 413.2ZM866.75 416.62C866.748 419.624 865.802 422.552 864.047 424.99C862.291 427.427 859.814 429.252 856.966 430.207C854.117 431.161 851.041 431.197 848.171 430.309C845.301 429.421 842.783 427.654 840.971 425.257C839.159 422.861 838.146 419.956 838.074 416.953C838.002 413.949 838.875 410.999 840.57 408.519C842.265 406.039 844.696 404.153 847.521 403.129C850.345 402.104 853.419 401.993 856.31 402.81L859.1 400.02C856.968 399.107 854.669 398.648 852.35 398.67C848.79 398.67 845.31 399.726 842.35 401.704C839.39 403.681 837.083 406.493 835.72 409.782C834.358 413.071 834.001 416.69 834.696 420.182C835.391 423.673 837.105 426.881 839.622 429.398C842.14 431.915 845.347 433.63 848.838 434.324C852.33 435.019 855.949 434.662 859.238 433.3C862.527 431.937 865.339 429.63 867.317 426.67C869.294 423.71 870.35 420.23 870.35 416.67L866.75 416.62Z" fill="#3ACC6C"/>
<path opacity="0.1" d="M627 801C908.665 801 1137 789.583 1137 775.5C1137 761.417 908.665 750 627 750C345.335 750 117 761.417 117 775.5C117 789.583 345.335 801 627 801Z" fill="#437FC7"/>
<path opacity="0.1" d="M204.58 130.62C202.25 129.27 199.1 130.56 197.5 132.73C195.9 134.9 195.45 137.73 195.05 140.36C194.16 146.27 193.51 153.06 197.5 157.52C190.98 137.75 172.23 122.6 151.5 120.39" stroke="#437FC7" stroke-width="3" stroke-miterlimit="10"/>
<path opacity="0.1" d="M407.61 223.87C406.11 223 404.09 223.87 403.06 225.23C402.147 226.713 401.605 228.393 401.48 230.13C400.91 233.94 400.48 238.3 403.06 241.13C400.864 234.783 396.93 229.181 391.705 224.961C386.481 220.741 380.177 218.073 373.51 217.26" stroke="#437FC7" stroke-width="3" stroke-miterlimit="10"/>
<path opacity="0.1" d="M738.11 164.59C736.61 163.73 734.59 164.59 733.56 165.95C732.646 167.436 732.104 169.12 731.98 170.86C731.41 174.66 730.98 179.02 733.56 181.86C731.362 175.515 727.427 169.913 722.203 165.694C716.979 161.474 710.676 158.805 704.01 157.99" stroke="#437FC7" stroke-width="3" stroke-miterlimit="10"/>
<path opacity="0.1" d="M624.39 483.7C626.07 484.07 627.05 485.76 627.83 487.29C628.355 488.25 628.797 489.254 629.15 490.29C629.613 492.04 629.798 493.852 629.7 495.66C629.736 496.808 629.615 497.955 629.34 499.07C629.045 500.194 628.329 501.16 627.34 501.77" stroke="black" stroke-miterlimit="10"/>
<path d="M957.6 522.472L858.668 614.75L817.087 575.965C814.421 573.479 810.805 572.082 807.036 572.082C803.266 572.082 799.65 573.478 796.985 575.965L795.491 573.881C789.94 579.058 791.434 589.537 796.985 594.715L850.936 645.037C852.97 646.934 855.727 647.999 858.602 648C861.478 648.001 864.236 646.936 866.27 645.041L977.692 541.222C983.246 536.047 985.261 526.556 979.71 521.378C974.16 516.202 963.15 517.296 957.6 522.472Z" fill="#57B894"/>
<path opacity="0.1" d="M957.6 522.472L858.668 614.75L817.087 575.965C814.421 573.479 810.805 572.082 807.036 572.082C803.266 572.082 799.65 573.478 796.985 575.965L795.491 573.881C789.94 579.058 791.434 589.537 796.985 594.715L850.936 645.037C852.97 646.934 855.727 647.999 858.602 648C861.478 648.001 864.236 646.936 866.27 645.041L977.692 541.222C983.246 536.047 985.261 526.556 979.71 521.378C974.16 516.202 963.15 517.296 957.6 522.472Z" fill="black"/>
<path d="M957.746 517.9L858.833 610.598L817.26 571.636C814.595 569.139 810.98 567.735 807.211 567.735C803.442 567.735 799.828 569.139 797.162 571.636V571.636C795.843 572.873 794.796 574.341 794.082 575.957C793.368 577.573 793 579.305 793 581.054C793 582.803 793.368 584.535 794.082 586.151C794.796 587.767 795.843 589.235 797.162 590.472L851.103 641.024C853.136 642.929 855.893 643.999 858.768 644C861.643 644.001 864.4 642.931 866.434 641.027L977.833 536.735C979.154 535.499 980.201 534.031 980.916 532.416C981.631 530.8 982 529.068 982 527.319C982 525.569 981.633 523.837 980.919 522.221C980.205 520.605 979.158 519.137 977.838 517.9V517.9C975.174 515.403 971.56 514 967.792 514C964.024 514 960.41 515.403 957.746 517.9Z" fill="#57B894"/>
<path d="M1010.43 748.422C1010.43 748.422 998.326 752.052 992.275 759.314C992.275 759.314 981.382 764.155 974.726 762.945C968.069 761.735 955.966 773.838 965.649 777.469C975.331 781.099 1034.64 790.782 1035.85 787.756C1037.06 784.73 1037.06 753.868 1037.06 753.868L1010.43 748.422Z" fill="#437FC7"/>
<path d="M1105.5 743.225C1105.5 743.225 1094.19 748.87 1089.47 757.058C1089.47 757.058 1079.57 763.689 1072.8 763.633C1066.04 763.578 1056.18 777.57 1066.34 779.494C1076.5 781.417 1136.58 780.828 1137.26 777.64C1137.94 774.452 1132.66 744.043 1132.66 744.043L1105.5 743.225Z" fill="#437FC7"/>
<path d="M1030.1 332.99C1045.14 332.99 1057.33 320.798 1057.33 305.759C1057.33 290.719 1045.14 278.527 1030.1 278.527C1015.06 278.527 1002.86 290.719 1002.86 305.759C1002.86 320.798 1015.06 332.99 1030.1 332.99Z" fill="#FFB9B9"/>
<path d="M1052.18 310.297C1052.18 310.297 1055.21 330.872 1060.66 333.293C1064.45 335.158 1067.92 337.608 1070.94 340.554L1055.82 347.816L1026.16 346.001C1026.16 346.001 1028.58 332.687 1024.35 326.031C1020.11 319.374 1052.18 310.297 1052.18 310.297Z" fill="#FFB9B9"/>
<path d="M1108.46 407.725C1108.46 407.725 1122.38 443.429 1108.46 477.922C1094.54 512.415 1088.49 517.862 1088.49 517.862L1084.26 472.476L1089.13 468.057C1089.13 468.057 1092.08 454.287 1089.68 446.135C1087.28 437.983 1090.91 412.566 1090.91 412.566L1108.46 407.725Z" fill="#FFB9B9"/>
<path d="M1004.38 485.184C1004.38 485.184 986.829 525.123 988.644 544.488C990.46 563.853 1004.38 645.547 1004.38 645.547C1004.38 645.547 1002.56 750.842 1008.01 750.842C1013.46 750.842 1039.48 760.524 1039.48 753.868C1039.48 747.211 1044.92 587.453 1044.92 587.453C1044.92 587.453 1075.78 657.65 1078.81 663.096C1081.84 668.542 1101.2 753.868 1107.86 753.868C1114.51 753.868 1135.09 747.816 1133.27 743.58C1131.46 739.344 1110.88 644.942 1099.39 620.736C1087.89 596.53 1090.31 505.154 1090.31 505.154L1070.94 462.793L1004.38 485.184Z" fill="#2F2E41"/>
<path d="M1021.93 293.353C1021.93 293.353 1004.98 292.143 1003.77 287.907C1002.56 283.671 1000.14 280.04 1001.35 280.04C1002.56 280.04 1003.17 277.014 1003.17 277.014C1003.17 277.014 1004.38 276.409 1004.98 277.014C1005.59 277.619 1006.19 272.778 1006.19 272.778C1006.19 272.778 1006.8 270.963 1007.4 272.173C1008.01 273.383 1008.01 272.778 1008.61 270.963C1009.22 269.147 1012.24 267.937 1012.24 267.937C1012.24 267.937 1023.74 268.542 1025.56 266.122C1027.37 263.701 1047.95 265.517 1052.18 268.542C1056.42 271.568 1075.18 282.461 1072.15 291.538C1069.13 300.615 1058.24 320.585 1058.24 323.61C1058.24 326.636 1054 326.031 1052.79 323.005C1051.58 319.98 1041.9 316.349 1041.9 314.533C1041.9 312.718 1036.45 295.774 1033.43 296.984C1030.4 298.194 1026.77 307.877 1025.56 306.061C1024.35 304.246 1021.93 293.353 1021.93 293.353Z" fill="#3F3D56"/>
<path d="M1105.44 376.258C1105.44 376.258 1080.63 339.949 1073.36 338.134C1066.1 336.318 1049.76 331.477 1049.76 331.477C1049.76 331.477 1033.42 333.898 1028.58 336.318C1023.74 338.739 1005.59 342.975 1004.98 350.237C1004.38 357.498 1009.82 427.09 1006.8 433.747C1003.77 440.403 993.485 503.943 998.327 502.733C1003.17 501.523 999.537 485.789 1020.72 485.184C1041.9 484.579 1053.39 471.871 1061.26 486.999C1069.13 502.128 1091.52 513.626 1091.52 513.626C1092.08 508.747 1092.89 503.9 1093.94 499.102C1095.75 490.63 1089.1 470.055 1089.1 470.055C1089.1 470.055 1089.7 422.249 1092.12 416.803C1094.54 411.356 1105.44 376.258 1105.44 376.258Z" fill="#437FC7"/>
<path d="M1096.36 375.048L1105.44 376.258C1105.44 376.258 1104.83 388.361 1107.25 391.992C1109.67 395.622 1113.91 414.382 1111.49 414.987C1109.07 415.592 1087.28 419.223 1087.28 419.223L1086.07 391.386L1096.36 375.048Z" fill="#437FC7"/>
<path d="M998.327 396.833C998.327 396.833 992.275 436.167 989.249 441.008C986.224 445.849 971.095 513.626 971.095 513.626C971.095 513.626 946.217 548.222 958.32 547.616C970.423 547.011 983.198 516.046 983.198 516.046C983.198 516.046 1020.72 447.665 1020.72 440.403C1020.72 433.141 1029.79 396.833 1029.79 396.833H998.327Z" fill="#FFB9B9"/>
<path d="M1015.88 343.58L1004.98 347.816C1004.98 347.816 991.065 397.438 994.091 401.674C997.116 405.91 1033.42 399.858 1034.03 398.043C1034.64 396.228 1027.37 343.58 1015.88 343.58Z" fill="#437FC7"/>
</g>
<defs>
<clipPath id="clip0">
<rect width="1145.7" height="817.62" fill="white"/>
</clipPath>
</defs>
</svg>
